<mxfile host="65bd71144e" modified="2024-02-28T02:33:45.455Z" agent="Mozilla/5.0 (Macintosh; Intel Mac OS X 10_15_7) AppleWebKit/537.36 (KHTML, like Gecko) Code/1.86.2 Chrome/118.0.5993.159 Electron/27.2.3 Safari/537.36" etag="QIAt23EFWeMueTQgzFIh" version="23.1.3" type="embed">
    <diagram id="1t4u5AQiOqFHH99taBFf" name="Page-1">
        <mxGraphModel dx="981" dy="422" grid="1" gridSize="10" guides="1" tooltips="1" connect="1" arrows="1" fold="1" page="1" pageScale="1" pageWidth="850" pageHeight="1100" math="0" shadow="0">
            <root>
                <mxCell id="0"/>
                <mxCell id="1" parent="0"/>
                <mxCell id="194" value="&lt;b&gt;Fig.2 Databricksを中心としたアーキテクチャ&lt;/b&gt;" style="rounded=0;whiteSpace=wrap;html=1;labelBackgroundColor=none;fillColor=none;strokeColor=default;movable=1;resizable=1;rotatable=1;deletable=1;editable=1;connectable=1;labelPosition=center;verticalLabelPosition=bottom;align=center;verticalAlign=top;" parent="1" vertex="1">
                    <mxGeometry x="170" y="150" width="570" height="180" as="geometry"/>
                </mxCell>
                <mxCell id="184" value="" style="rounded=1;whiteSpace=wrap;html=1;fillColor=#ffe6cc;strokeColor=none;" parent="1" vertex="1">
                    <mxGeometry x="470" y="175" width="260" height="150" as="geometry"/>
                </mxCell>
                <mxCell id="182" value="" style="rounded=1;whiteSpace=wrap;html=1;fillColor=#FFFFCC;strokeColor=none;" parent="1" vertex="1">
                    <mxGeometry x="180" y="175" width="290" height="150" as="geometry"/>
                </mxCell>
                <mxCell id="179" value="&lt;i style=&quot;font-size: 10px;&quot;&gt;&lt;u style=&quot;font-size: 10px;&quot;&gt;ETL Pipelines&lt;/u&gt;&lt;/i&gt;" style="text;html=1;strokeColor=none;fillColor=none;align=center;verticalAlign=middle;whiteSpace=wrap;rounded=0;fontSize=10;" parent="1" vertex="1">
                    <mxGeometry x="295" y="190" width="60" height="30" as="geometry"/>
                </mxCell>
                <mxCell id="180" value="&lt;i style=&quot;font-size: 10px;&quot;&gt;&lt;u style=&quot;font-size: 10px;&quot;&gt;ETLed Data Store&lt;/u&gt;&lt;/i&gt;" style="text;html=1;strokeColor=none;fillColor=none;align=center;verticalAlign=middle;whiteSpace=wrap;rounded=0;fontSize=10;" parent="1" vertex="1">
                    <mxGeometry x="377.5" y="190" width="85" height="30" as="geometry"/>
                </mxCell>
                <mxCell id="198" value="&lt;i style=&quot;font-size: 10px;&quot;&gt;&lt;u style=&quot;font-size: 10px;&quot;&gt;Raw Data Store&lt;/u&gt;&lt;/i&gt;" style="text;html=1;strokeColor=none;fillColor=none;align=center;verticalAlign=middle;whiteSpace=wrap;rounded=0;fontSize=10;" parent="1" vertex="1">
                    <mxGeometry x="200" y="190" width="60" height="30" as="geometry"/>
                </mxCell>
                <mxCell id="212" style="edgeStyle=none;html=1;entryX=0.006;entryY=0.514;entryDx=0;entryDy=0;entryPerimeter=0;" parent="1" edge="1">
                    <mxGeometry relative="1" as="geometry">
                        <mxPoint x="250" y="250.06578947368416" as="sourcePoint"/>
                        <mxPoint x="400.24" y="250.55999999999995" as="targetPoint"/>
                    </mxGeometry>
                </mxCell>
                <mxCell id="233" value="&lt;b style=&quot;font-size: 10px;&quot;&gt;Azure Data &lt;br style=&quot;font-size: 10px;&quot;&gt;Lake Storage&lt;br style=&quot;font-size: 10px;&quot;&gt;Gen2&lt;/b&gt;" style="image;sketch=0;html=1;points=[];align=center;fontSize=10;image=img/lib/mscae/Data_Lake.svg;labelBackgroundColor=none;" parent="1" vertex="1">
                    <mxGeometry x="211" y="225" width="38" height="50" as="geometry"/>
                </mxCell>
                <mxCell id="234" value="&lt;b style=&quot;font-size: 10px;&quot;&gt;Azure Data &lt;br style=&quot;font-size: 10px;&quot;&gt;Lake Storage&lt;br style=&quot;font-size: 10px;&quot;&gt;Gen2&lt;/b&gt;" style="image;sketch=0;html=1;points=[];align=center;fontSize=10;image=img/lib/mscae/Data_Lake.svg;labelBackgroundColor=none;" parent="1" vertex="1">
                    <mxGeometry x="401" y="225" width="38" height="50" as="geometry"/>
                </mxCell>
                <mxCell id="190" value="" style="shape=image;imageAspect=0;aspect=fixed;verticalLabelPosition=bottom;verticalAlign=top;fillColor=#FFFFCC;image=data:image/png,iVBORw0KGgoAAAANSUhEUgAAA+gAAAPKCAMAAAAwGYDrAAAADFBMVEVMaXEArdQArdQArdTnwP93AAAAA3RSTlMApk0KRuKcAAAACXBIWXMAAHJkAAByZAFUE4h3AAAZCklEQVR42u3d4XLcOKJDYZN6/3eeSpxkZjex3bFbEgl85+etrb2bFsEDoR3n5QV9zDnG8YMxpg8EyEv5r4z/QtaB+Jh/R9SB+JiLOpDDOzH/VuB9QEB8zkkdSKjtx8dIOpCfc0kHGnIu6cDWHIekA+mMh4N++LCA/Jz7lg2IL+7KO1AhdOUd2JP5dzlX3oH44k7pQENxp3SgQuj2OKBA6JQO7MY8DkoHCN0eB3QKXXkHtuL4LMo7kF7cKR0oKO6UDlQI3R4HNAhdeQc24fgaPkAgvbhTOlAhdHscUCB05R1Yn/n1nFM6EF/cKR2oELo9DmgQuvIOLM14UtApHUgv7pQOVAjdHgc0CF15B5bleCY+TiC9uFM6UCF0exxQIHTlHViR+eycK+9AfHGndKChuFM6UCF0exxQIHRKB9ZiHgelA4RujwMIXXkHluc4Dx8ukF7cKR2oELo9DigQuvIOrME8N+fKOxBf3CkdaCjulA5UCN0eBxQIndKBu5nHQekAodvjAEJX3oHlOa7CRw2kF3dKBwqKuz0OqBC68g40CF15B27iuBYfOJBe3CkdqBC6PQ4oEDqlA9czj4PSAUK3xwGErrwDy3Pcg/IOpBd3SgcKijulAxVCt8cBDUJX3oHLOO7Exw+kF3dKByqEbo8DCoRO6cAVzOOgdEBxt8cBhK68A4SuvAO3M5YIOqUD6cWd0oEKodvjgAahK+/AiRzr4GEA6cWd0oEKodvjgAKhK+/AOcy1ck7pQHxxp3Sgobjb44AKoSvvQIHQKR14NvM4KB0gdHscQOjKO7A8x6p4NEB6cad0oELo9jigQOjKO/As5so5V96B+OJO6UBDcad0oELo9jigQOiUDnydeRyUDhC6PQ4gdOUdWJ5jDzwoIL24UzpQUNztcUCF0JV3oEHoyjvwaY6d8LiA9OJO6UCF0O1xQIHQKR34DPM4KB1Q3O1xAKEr7wChUzpgiaN0QHG3xwGtQlfegQahK+9A+hJH6UBHcad0oELo9jigQOiUDqQvcZQOdBR3exxQUNyVd6BD6Mo7UCB0SgfSlzhKB0qEbo8DGoSuvAPpSxylAx3FndKBCqHb44ACoSvvQPoSR+lAR3GndKChuNvjgAqhK+9AgdApHUhf4igdKBG6PQ5oELryDqQvcZQOdBR3SgcqhG6PAwqErrwD6Uuc8g50FHdKBxqKO6UDFUK3xwEFQqd0IH2Jo3SgROj2OKBB6Mo78HI04DFDcad0QHG3xwGErrwDhK68A5Y4SgcUd0oHCN0eBxA6pQNNSxylQ3G3xwGErrwDhE7pgCWO0gHF3R4HELryDhC68g5Y4igdivtB6QCh2+MAQqd0wBJH6YDibo8DFHflHSB05R0gdEoH2pc4Sgeh2+MAQlfeAUscpQOKO6UDhG6PAwid0gFLHKUDirs9Doq78g4QuvIOEDqlA5Y4SgcI3R4HELryDljiKB1Q3CkdijvscSB05R0gdEoHLHGUDiju9jiA0JV3gNApHbDEUToIHfY4ELryDljiKB1Q3CkdUNztcQChK+8AoSvvgCWO0qG4g9JB6LDHgdApHbDEUTqguNvjAEJX3gFCp3TAEkfpUNwF1x4HQofyDkJX3gFLHKUDijulA4RujwMIndIBSxylA4q7PQ6KO5R3EDooHYRO6YAlzh4HELryDhC68g5Y4igdUNwpHYQOexwIHZQOSxylA4q7PQ5Q3JV3gNCVd4DQKR2wxFE6CB32OBA6lHdY4kDpUNwpHVDc7XEAoSvvAKFTOmCJo3Qo7rDHgdChvIPQQemwxFE6QOj2OIDQlXfAEkfpgOJO6VDcYY8DoUN5B6GD0mGJe+r77phzjEHpQG5xn7s2EXscCP1zBXhs/L8dIPRHszIpHYhb4jb/n0/pUNw/GZTNLyqA0B+qvkN5B5KEnvtHACxxH73hUjqQXtwTZgaA0B9ovfY4IF/oyjuQvsRROlCwxFE6kCP0kfNHsceB0D8bjknpQEE2KB2IXuLscUBHcbfHARVC9yPvQIPQKR3oWKntccDG+ku8vJR3EPpna67yDhQMV5QOZC9xlA7sLPSR+gezx4HQPxsHP/IONKRhUDqQvMTZ44Ae6dnjgOwlzh4H1LzFUjrQsEtTOhD5Q+72OKBN6Mo70PHbGSgdinvB+yulQ3FvSIA9DoRe0Gn9yDsIveH8+5F3WOIKRipfsUFxb9CcPQ6E3nD27XEg9IKjT+mwxDWcfEqH4l4wT9njQOgNVVZ5B6E3+I3SYYkreGOldCjuDWfeHgdCL2ix9jgQekOJ9SPvsMQVmI3Sobg3iM0eB0JvOO32OBB6wWGndFjiGs46pUNxLxik7HFQ3BvKq/IOQm8wGqWD0AveUSkdlriGU26PA6EX9FZ7HAi9obYq77DEFbiM0qG4N7ydUjoIveF82+NA6AXH21YBS1zD6aZ0KO4FE5Q9Dop7g8TscSD0hpNN6SD0grdSSoclruFc2+NA6AVN1R4HQm8oqso7LHEF9qJ0KO4N76OUDkJvONH2OBB6wYG2XMAS13Ce3YBQ3AtGJ3scFPcGbdnjQOgNZ5nSQegF76GUDktcw0n2FRsIvaCb2uNA6A3VVHmHJa7AV5QOxb3hDZTSobg3nGF7HAi9oJW6DkHoDSfYCw4scQUzkz0OinuDqOxxIPSG02uPA6EXHF5KhyWu4exSOhT3goHJHgdCbyijyjsIvcFQPjBY4greOSkdinvDqbXHgdALeqjLEYTecGa97sASVzAs+YoNinuDmuxxIPSG82qPA6EXHFdKhyWu4bRSOhT3gknJHgfFvUFKyjsIvcFJPj4QesFbJqXDEtdwTu1xIPSC5mmPA6E3FE8vP7DEFdiI0qG4N8jIHgdCbzih9jgQesEBtXTAEtdwPikdjmfBiGSPg+LeoCF7HAi94WxSOkio4L2S0uG1suFk2uNAQQVd0x4H57Khairv0DQL/EPpoJ+GN0pKB/s0nEl7HMin4Ei6PuFENpxI9yd0zILZyB4H4mkQjz0OhN5wGikdtFPwJknp8CLZcBZ9xQbSKWiX9jg4iQ3lUnmHbllgHEoH4TS8Q1I6+KbhFNrjQDcFvdJlCmew4Qx6PYJWWTAU2eNANQ2qsceB0BvOnz0ORFNw/CgdXh0bTh+lw+ErmIjscXD2Guqk8g5Cb3CMjxsUU/DWSOlQ3BvOnT0OBFPQJF2tcOoaTp2XJeiRBdOQr9hALg1ysceB0BtOnD0O1FJw4CgdXhYbzhulw3ErGIXscVAgG7SivIPQG6ziwwepFLwnUjq8JjacNHscKKWgO9rj4Jw1VEevTtAcC3xC6aCTBp3Y40DoDWfMHgcyKThidhI4YQ0njNLhgBXMQPY4KO4NIrHHgdAbThelg0YK3gwpHV4MG86WPQ4kcrh2PQ4QunvX84D5x8XrgSju3gk9EUrnD6dKx7LH0YdD5fKFM+VMuX2hJRp+7HGgjjp12OPQKvThwVA6CN2TcQXDEkfp7mBC1w9dwh6Os0TobmFPRzvkDEoHZXgLpHQwhnNkjwNhFDdDVzGcIncxpcMS5zL2kEAWnpLaRehOkMdE6VRB6J6TC9nLn/PTqnR7nOOjEdrjoBASumcFQvewPCxY4jwtSocljtLdyxShC7qYXczOjXPjZqZ0TZDQXc0eGT3Qgz0OhO7M2ONADo4MpcMSR+nuZ1jiXNAenApIDJ6cKkbovODReXS0QOieHaV70XNW7HEeFylof65pOClOihcvmHNc1B4gCMETVMkI3SnxCN3VdOCQeIYuay94zgilu60dEUOO69pjVPqoQHkHoTsfmhkIHZQOSxylu7Phh9xd2h6ms0Hobm1K1/Y4wLXtcVIABXieChoDOBf2OBCApufqhlMBSoclzuXtocIS56mqaYTuRHislO7qJ3TP1QXuZc55oHQ3uOOg4bnCPVqngdCVdxA6KB2WOFA6FHd9zT3uytftXOQucufAOXCTU7pmR+iuco/Yde+694yVNkJ3BrQ2EDooHZY47K9097lOB3scVDp40iB0j9qjds17c/OsKd2Lm2dP6W51l7w251p3rXvynrx7ndJ1OUJ3sXvgLngXvD0ODUL31HU4EDooHZY4bKl0t7sWB3sc4kqcJ668o0DoHrgmhwKhCzqlI/9Vzc1uj0OB0D3v2kue0quETum1t7wrvqa9udmrr3mPq6e4u9rtcagQ+usjH8Juj0O20KWd0hG+xAk7paOluAu7PQ4txV3YlXc0CV3Ym46Bp1Ut9H/DPoWd0pG1xL0Zds/WHodkoRO7PQ4lQif27DvfY61e4mSd0lFW3GXdHoeS4i7r9jj0CF3WAy9+Sid0Wad0dC1xsm6PU9yPUmTdHkfosu5QULrLW9SdCkr3OibrlG6P80BJgQCUd8+T1pV39zShOy4UQOmWOFqndCjuhh17nEsb7LClBjw0QtfgGzzgkVninBt7nAsbyqA9jtBF3RGhdNe1l3VnxL3sBUzUKd2u4hGKOh0o70oZVTgnyjuhi7qDQumELuqUDkucqNvjXNNwjLaUAqUTugW+wQqUbokTdV+xuaIh6vY4Qkf1WaJ0F7SoOzGejVcuUad0e5yH5rs2clDe1TCrnFOjbRG6E+XYUDqhizqlW+LgVd0e52IGfeyrCEondMeqwRH1SpdK58pXbC5lkLo9zp2M7pOlZLmSUXC0KJ3Q0XC23LseEwoOlz1O8UKD1JV3QkeD1CndZYxXkUyniNK9XunvlK5duYpJnTDcuITuiDEGpVviJJ0yuvc4xZ1N7HGKOxwye5xLGE6ZPc6TQdkxc9l6MCg4Z/Y4xR0NUrfHEToaDhqlu35RUN8p3QsVGo6ai9Yjwe9Jn/ShvHsi6rvy7sMndPWdQCjdEqe+O1n1e5zirkHqigXlndCJhUTylU7ozhuLHH5nJxw4e5wrF6RujyN0tJ84SnfhouB7Nkr3CoWGF3WfuoeAArvY49QqNCRdeSd0FBw6SnfVouGVkdLdtGhIuo/cRXvVRf0L9Z1SupQ+g/M8v/PhJ/CdtS+AwSmUbon7me1HYv3A1fcj9pJuj1Pc14n3U8L9ZubXSfx02lytZUJ/zfeVKpoL5H06bpTeIfST/b163KfzRunZL01XG/yjuDt6vmLzsT854nPJz/ueuA9qUd7DitRYNeK3pn04cz7tGKFvEPHb0r7/X1GndJfrZhH/37R7c6R0r0sPZXz7D/Qate/+OdnjWq/WEfQrk65Q+yQYSt/s8x4j8K8JnR72yTCUvk2Disz4f3s80fiKrfxaDc/4BWYfzp7yvvatWhLyswe6vc8fpUdfqmUZP7fFD6eP0hcUemvIzwv71gfQV2yRH3R5yE/K+s5Jt8fFVSchP22eG06g8r6E0IX8ZLFPR5DSb75Od/2p9b2yPp1BSr/vBUnIL8v6vh+0PW7vj3jo65dmfdtP24+8b/wJC/n1Wd/2I/cj73sKXV+/KeuUbo+76iLV12/M+rbf/tjj9rpHhfzmqG/7+dvjtrlGqXyFrCvvlH7mZyvkizwbSqf0sz5aKl9I66PuarPHXfLJCvlaWd/3h7HtcesKXcrXi/q+f1hKX1PoUr6k6Hr+pJR+QdClfFWtb/wHtcetdX8K+cIPy6+gUN6fEnQpX/tx+f1xlP71D1XKl/fdzP8jUvrJQR/Ctv7LetfyaI97+mdK5ltEfffL2B53a02S8l0u6N0flB95v+/ylPJ9oj7C7zFKP+0jlfKNHl3AimKPu+Ej5fLNop7/aqK8P/0jlfLdnl7ItyKUfqXSxXy7qI/YG4zSz0q6lG+XiaCb2Vds1ySdzHfarsZ3oh6ZPe6Kz9SPv0F5D/xx0SHmoPSGX0ExdHZQesGvoPj2b3VP/7YK7HHZv4ICUN47lA4o75QOUHro7wAAKF15B06F0gFKp3TMt/HhULo9budgv/7I92MW+PGfHYJvj1Ped4j3w9H+MPYir7wr76sF/Cn5/nPkBV55p/TbI35SwOWd0im9KeK/5d0nT+n2uMuK+q0XNbvb4yg9OuPkrrxTekvGuZ3S7XFnvY8v3M+ondKV9+yQ//tAqd0eR+nZIRd2Sqf0kpALO6Xb4z6T8mNfvLPb45T3VJUb6JR35b1E5cSuvFN6V8qJndIp/Y8hj0s5sVO6PS5c5bJuj6P0rpTLuvLu4ZfEXNa7lX5I+VGFrNvjpFzWYY+TclmHPU7MN8u6mFK6lNM67HEmFFmHPY7MVXjlndI1LVqndJe6Z+IEULo9TmendS3Rha6zu+4VxdpnTOa0TiLpe5zOLuo8El/exVy7s8fFP14xd+sr7/EP1wKnwSvv8UoXc1F31uL3OJ3d1e+4xZd3MRd1e1y80sXc7e/MxT9UMXcqKD2+qZngRN3Biy/vYi7qmmS80sVc1J2+eKX7KThRp/T8pynmDoc9Lr68i7moK+/xj1LMnQ/nMF7pNjgHxEmM3+NscKJO6fnlTMxvOCKinrDH6Urwqk7pPlaIuq/Y6Nyruj1OeadzUVfe1TI6t8op75RO55zgaBY9PjrX3yk9/+nRuf5OQ/FK96NwTovynq90tV3UKT1/j6NzZqD0+Duazh0Ye1y+0ulc1Ck9/7HJuf5O6fFPTW33VZs9Lr+807kiqLznPzM5d2yU93ilq+2iTun5D4zOrXKUnv+85NwqZ4+LV7raLurKe77S5dyrOqXn73Fqu6hTev6jknNRt8fFK11tF3VKz39Oci7qlJ6/x6ntom6Pyy/vci7qynv8M1LbRV15z1e6nIs6pec/IDkXdUrP3+O8nos6pec/HTkXdcN7vNL9Aw3pUe/66y5bPRs3IES9oJ8OOcfeu4+gL/Vc5NzLuqDnPxWv56Iu6PlKl3Mv64Kef/vKuZd1Qc8f3uVcgxf0+MdhhtPgBT1f6XJO635gJv9RyLmoZ2p9w5Pt0wCtFyxPQ85B6+nN/USlyzlStT48Al+rIV/rez4BOYesFxzu6aOArOe/lA45h9f1gvFJzkHrBSPzlHPIev6XSUPOIesFXxrLOe7J+mZh3/1XnE45B7Gnx/yp3V3OEZn1jN9XLudQ4tNT/sTuLueIE3vSvz0y5RzC/qeQZ53pIecQ9mCVPzPoco6Yd/bUfytQzrFg2O9Je1pff+5LupzjJLVfmPaZ/q/+TjlHd5GfySJ/2ku6nGNft3dk/BlBl3NsGfeiiD8j6H4PJK6O+5hfCfz8lvBGPQ05x56B/4vIv8Z7VPdPOUdC6N/E5/PVoMs5kB90OQfygy7nQH7QM3P+68VuvvLWsjN/rjveAZEd9JEV7vml72ysuggN+ojI9wk/cFX7PS0Sgz62DvgVf1lC3rF/0IeA+0lLxAd9iLi/54z4oM+NIj7X+U1k0o6tgj73iPiav1lU2nFTIuJyvpTGhR2bBl3GhR35QR8y7veNIj7oY9GQv+zJFHZcw9w75xuKnNixetDHaiF/ycAbO85m08E9J+TEjsWCPoVc1pG/xQm5rCM/6EPIZR3xW9zNx68j5LKOm1/Rx60hb0q5qOO+5j5vTPlLJ7KOy4M+hVzWkf+KLuV3Ieq47hX98tM2pJzWcXVzv/ikCbms44bmPqVc1BHf3KeUyzrym7uUizryhT6kXNYRL/Qh5aKO+CluSrnv1hHf3KeU0zryhT6knNYRL/Qh5Str3RnGU4Q+pVyDR7zQp5SLOvKFfk7MhdPLOi5j3HKAyNzLOhYT+pRyDR7xQp+X/3+EBo/LlzgyF3XkF/ch5V7WobiLuZd1bF/cp5SLOhR3+5uXdexf3J9xUMhc1BH/gk7moo7Fc/7lb9bI3ASP5Ye4r7pAzO1yiB/ipFzUsUPOv1L4yFzUsUfOvyB0A5xdDvE5J3NRxzY5/2Rx19lFHRvl/HPfrOnsoo6tcj5O+u+FL9ZxCeOcf5ZFZxd1rJTzh86BmIs68nM+zvgvhS/WsVTOp5iLOsJnuL8s7jq7qGPPnD/+7L2aizr2rO1/UdzF3Bfr2DbnL2Iu6kiv7Y8+cwucqGNjnT9W3MVc1LF1zl/EXNSRXtsfedZiLurYXOcfF3cLXPq3bQJTkPMXMYeop9f2j5qbmIs6AnT+/gMW86aoe1nP1fm7QhdzUUeEzt97QxdzUUdMzl/EHKK+W8w/EU8xx1/Ns9hQ538Ouh+PEXVE6fxPz1TMIephOv/96zUxh6jnxfz/HqiYQ9Rzvjt/43mKOd6te9hW5//5RkXMIerBMQc+1gDEHKKOJb9SA0S9ZYMDTPBiDoi6l3OIOsQcoS/roifmsMtBzCHqEHN4WYeYQ9TFHLDLiTngZd2PxwCiLuaAl/VrOruYw8u6mAMavAUOEHWv5oCXdZ0doHUxB0RdZ4cGDzIHrdvZAVEnc2DhrMsymYPWyRwwzJnZAVonc4DWpRygdSkHTsq6lAO0LuaArEs5YJmTcoDW7wm5lEPWqRxoyLqUA7Qu5YCsrxpyKQeys07lwPtZH0IOELuv0QBZF3Jgq6zvFHYhB8Lf2M3rQHbYiRzIDvsgciA67TIOnBz2m9OuqwPJaR80DtwV9yHigLx/OeASDiyX92ckfgg4sEXkXzP/cOp//KelG9g6998Z/+Hn/6032f8AT6wHr3xuNZwAAAAASUVORK5CYII=;" parent="1" vertex="1">
                    <mxGeometry x="425" y="221.94" width="27.18" height="26.35" as="geometry"/>
                </mxCell>
                <mxCell id="236" value="&lt;span style=&quot;font-size: 10px;&quot;&gt;&lt;b&gt;Databricks&lt;br&gt;Workflows&lt;/b&gt;&lt;/span&gt;" style="image;aspect=fixed;html=1;points=[];align=center;fontSize=12;image=img/lib/azure2/analytics/Azure_Databricks.svg;imageBackground=#FFFFCC;labelBackgroundColor=none;" vertex="1" parent="1">
                    <mxGeometry x="301.90999999999997" y="225" width="46.18" height="50" as="geometry"/>
                </mxCell>
                <mxCell id="239" value="" style="image;aspect=fixed;html=1;points=[];align=center;fontSize=12;image=img/lib/azure2/analytics/Azure_Databricks.svg;imageBackground=none;labelBackgroundColor=none;" vertex="1" parent="1">
                    <mxGeometry x="590.5" y="154.54" width="32.75" height="35.46" as="geometry"/>
                </mxCell>
                <mxCell id="265" value="" style="group" vertex="1" connectable="0" parent="1">
                    <mxGeometry x="620" y="183.75" width="90" height="132.5" as="geometry"/>
                </mxCell>
                <mxCell id="252" value="" style="rounded=1;whiteSpace=wrap;html=1;strokeColor=none;" vertex="1" parent="265">
                    <mxGeometry width="90" height="132.5" as="geometry"/>
                </mxCell>
                <mxCell id="253" value="&lt;i style=&quot;&quot;&gt;&lt;u style=&quot;&quot;&gt;&lt;font style=&quot;font-size: 10px;&quot;&gt;MLOps&lt;/font&gt;&lt;/u&gt;&lt;/i&gt;" style="text;html=1;align=center;verticalAlign=middle;whiteSpace=wrap;rounded=0;fillColor=none;fontColor=#333333;strokeColor=none;flipV=1;flipH=0;" vertex="1" parent="265">
                    <mxGeometry y="-2" width="90" height="25.64516129032258" as="geometry"/>
                </mxCell>
                <mxCell id="243" value="&lt;font style=&quot;font-size: 10px;&quot;&gt;&lt;b&gt;Feature Store&lt;/b&gt;&lt;/font&gt;" style="text;html=1;align=center;verticalAlign=middle;whiteSpace=wrap;rounded=0;fillColor=#ffe6cc;strokeColor=none;flipV=1;flipH=1;" vertex="1" parent="265">
                    <mxGeometry x="5" y="47.016129032258064" width="80" height="21.370967741935484" as="geometry"/>
                </mxCell>
                <mxCell id="242" value="&lt;font style=&quot;font-size: 10px;&quot;&gt;&lt;b&gt;AutoML&lt;/b&gt;&lt;/font&gt;" style="text;html=1;align=center;verticalAlign=middle;whiteSpace=wrap;rounded=0;fillColor=#ffe6cc;strokeColor=none;flipV=1;flipH=1;" vertex="1" parent="265">
                    <mxGeometry x="5" y="70.95161290322581" width="80" height="21.370967741935484" as="geometry"/>
                </mxCell>
                <mxCell id="241" value="&lt;font style=&quot;font-size: 10px;&quot;&gt;&lt;b&gt;Model Serving&lt;/b&gt;&lt;/font&gt;" style="text;html=1;align=center;verticalAlign=middle;whiteSpace=wrap;rounded=0;fillColor=#ffe6cc;strokeColor=none;flipV=1;flipH=1;" vertex="1" parent="265">
                    <mxGeometry x="5" y="95.20338709677421" width="80" height="21.370967741935484" as="geometry"/>
                </mxCell>
                <mxCell id="264" value="" style="shape=image;verticalLabelPosition=bottom;labelBackgroundColor=default;verticalAlign=top;aspect=fixed;imageAspect=0;image=data:image/png,iVBORw0KGgoAAAANSUhEUgAAAhAAAADMCAYAAAAiY5r0AAABdWlDQ1BrQ0dDb2xvclNwYWNlRGlzcGxheVAzAAAokXWQvUvDUBTFT6tS0DqIDh0cMolD1NIKdnFoKxRFMFQFq1OafgltfCQpUnETVyn4H1jBWXCwiFRwcXAQRAcR3Zw6KbhoeN6XVNoi3sfl/Ticc7lcwBtQGSv2AijplpFMxKS11Lrke4OHnlOqZrKooiwK/v276/PR9d5PiFlNu3YQ2U9cl84ul3aeAlN//V3Vn8maGv3f1EGNGRbgkYmVbYsJ3iUeMWgp4qrgvMvHgtMunzuelWSc+JZY0gpqhrhJLKc79HwHl4plrbWD2N6f1VeXxRzqUcxhEyYYilBRgQQF4X/8044/ji1yV2BQLo8CLMpESRETssTz0KFhEjJxCEHqkLhz634PrfvJbW3vFZhtcM4v2tpCAzidoZPV29p4BBgaAG7qTDVUR+qh9uZywPsJMJgChu8os2HmwiF3e38M6Hvh/GMM8B0CdpXzryPO7RqFn4Er/QcXKWq8UwZBywAAAERlWElmTU0AKgAAAAgAAgESAAMAAAABAAEAAIdpAAQAAAABAAAAJgAAAAAAAqACAAQAAAABAAACEKADAAQAAAABAAAAzAAAAAC39B2HAAACBGlUWHRYTUw6Y29tLmFkb2JlLnhtcAAAAAAAPHg6eG1wbWV0YSB4bWxuczp4PSJhZG9iZTpuczptZXRhLyIgeDp4bXB0az0iWE1QIENvcmUgNi4wLjAiPgogICA8cmRmOlJERiB4bWxuczpyZGY9Imh0dHA6Ly93d3cudzMub3JnLzE5OTkvMDIvMjItcmRmLXN5bnRheC1ucyMiPgogICAgICA8cmRmOkRlc2NyaXB0aW9uIHJkZjphYm91dD0iIgogICAgICAgICAgICB4bWxuczp0aWZmPSJodHRwOi8vbnMuYWRvYmUuY29tL3RpZmYvMS4wLyIKICAgICAgICAgICAgeG1sbnM6ZXhpZj0iaHR0cDovL25zLmFkb2JlLmNvbS9leGlmLzEuMC8iPgogICAgICAgICA8dGlmZjpPcmllbnRhdGlvbj4xPC90aWZmOk9yaWVudGF0aW9uPgogICAgICAgICA8ZXhpZjpQaXhlbFhEaW1lbnNpb24+NTI4PC9leGlmOlBpeGVsWERpbWVuc2lvbj4KICAgICAgICAgPGV4aWY6UGl4ZWxZRGltZW5zaW9uPjIwNDwvZXhpZjpQaXhlbFlEaW1lbnNpb24+CiAgICAgIDwvcmRmOkRlc2NyaXB0aW9uPgogICA8L3JkZjpSREY+CjwveDp4bXBtZXRhPgon8RWHAAAwRUlEQVR4Ae2d3W4cR5bnIzJJtsbdA7MvtmdsLOCyW/bAV6Yubc9Aqd4HMP0EooC9mG57TfEJRD0BKfnzYgFST2D5Bcw0Gp6euRnRV8ZYdqsELGB07wJNo2e7LbIyY87J+mCxVB+ZESczIyv/CSQrPyJOnPhFsvLUiRMRSmEDARAAARAAARAAARAAARAAARAAARAAARAAARAAARAAARAAARAAARAAARAAARAAARAAARAAARAAARAAARAAARAAARAAARAAARAAARAAARAAARAAARAAARAAARAAARAAARAAARAAARAAARAAARAAARAAARAAARAAARAAARAAARAAARAAARAAARAAARAAARAAARAAARkCWkYMpIAACDSBQPTx150Lev546STeefHkwjWcgAAIgEAOAjAgckBCEhBoEoHow0cb6jTZUKF5LdC6Y0ywYYxZ19qsz69H0FU6OVFGnxhljlWiHlP643jn5Xh+PtwFARBoIwEYEG1sddR5qQhEe4/IMEg2g1V9NU3U5mJDoVj1DRkUJPPYJGe3451X42K5kRoEQGBZCawsa8VQLxBYdgLR3sNIheotZdItrdW6SY2iT/FtYJBESgV3xIVDIAiAQGMJwIBobNNB8bYSYMNBh/oW1T/KGGhTEYr0uKKCUAwIgEADCMCAaEAjQUUQYALRHgVAhqt75GTYrJwIdWFQ90W38nJRIAiAgLcEAm81g2IgAAIjAtH7322rYO1BLcYDaWFS/cVIGRyAAAiAABGABwKPAQh4TCALkAyTA23MpiohviF31dMkzp0WCUEABFpBAAZEK5oZlWwiAe6y0KE5It079eu/FtevAzQAARDwiQC6MHxqDegCAgMC0d43Gzr8CRkPaad2KFn8Ayabqr0doAAIeEYAHgjPGgTqgAAbDyoI2XhYMPFTNawQ/1ANZ5QCAk0jAAOiaS0GfZeaQL/bYuVTX4yHDHZ6dn+poaNyIAACVgTQhWGFDZlAQJ5A33jwpNviQvUuYf6HCzxwAgIgwARgQOA5AAFPCOhw9cCLmIeLPGIstnURCM5AAAT6BGBA4EkAAQ8I0DwPt0iNyANVLqhAi3Bh/ocLRHACAiAwJAADYkgCnyBQE4Gs68KY3ZqKn19s2ovnJ8BdEACBthJAEGVbWx719obAYLhmZfoMV9fUge6mSfpYpeqE5pqknTe9rgKzofXKVe5OweqbfSr4CwIg8DQBGBBPM8EVEKiMAA3Z3Koo7iE2iflMXerdj3+db02L6GNaewMbCIAACMwgUOfkuDNUwmUQaA+Ba3d//6hkA4IMh7Pb8CS055lCTUGgKgLwQFRFGuWAwASBcr0PQdckT27AcJiAjlMQAAExAgiiFEMJQSBQjIAOV3jkhfhmjLpjEn0FxoM4WggEARAYIwAPxBgMHIJAVQTK8j7QsMvb8fbLu1XVA+WAAAi0lwA8EO1te9S8RgI6DK5LFw/jQZoo5IEACMwjgCDKeXRwDwRKINCfsnqVgiflNu62iLcv35STCEkgAAIgMJ8AujDm88FdECiBQBjJCg26KtW7sjIhDQRAAATmE0AXxnw+uAsC4gSkuy9otMU1rFch3kwQCAIgsIAADIgFgHAbBCQJRHuP1kleJCVTK31Ioy26UvIgBwRAAATyEoABkZcU0oGACIEkEhEzEJImp7cl5UEWCIAACOQlAAMiLymkAwEJAgG8DxIYIQMEQKB+AjAg6m8DaNAiAlqr16SqC++DFEnIAQEQsCEAA8KGGvKAgD2ByD7rhZwxYh8u8MAJCIBAxQRgQFQMHMW1l0D04TcbUrU3ibonJQtyQAAEQMCGAAwIG2rIAwIWBIJERxbZZmQ5i2fcwGUQAAEQqIQADIhKMKMQEGACgVT8A7ov8ECBAAjUTgAzUdbeBFCgLQSMVhvKuNeWpq3+yl1KuRKivYeRawnxzsuxqwzkBwEQKI8ADIjy2EIyCIwIZBNImUQmBiI9uz8S7OFBf60PfeSkmjbHlP+KkwxkBgEQKJUADIhS8UL4BIE9Ond9iW6RjMcTchtw2qN6ayE9L/HL1eNt1bWNlTaB53X0GD9UA4GKCMCAqAg0iskI8IslaiOLIFQbAr0XhC7oer/uhcBkWWlivmjjc4I6g0CTCCCIskmtBV0bSyBV+qqM8on38Q8ik2WtpfBAyDwwkAICpRGAAVEaWggGgXMCWuvO+Zn9EQVQNuHFGtnXkHPqk/idV5pQT7dqIjcINJwADIiGNyDU959AP4DScPeN+5b2Ynch5UmQmSwrC6AsT0lIBgEQECEAA0IEI4SAwDwCHEAptfkdQCkxWZYxiH+QelogBwTKJAADoky6kA0CTEAgqDADSUMbfQ+gFIn18NzLgocaBECgTwAGBJ4EECibgNYyM1Aa/4evysR6+O1lKftxgXwQaAoBGBBNaSno2VgCWsmsgUGzSMQ+QxCJ9WiAl8XnNoBuIFAlARgQVdJGWa0jwLMyKmXWJSqeJj3PRyYIxHo0wMsi0ZaQAQLLQAAGxDK0IurgMQH3WRnPK+e5a18g1sN3L8t5W+AIBEAABgSeARAok4DASzVTrwGufYp/cJ4sy38vS5kPC2SDQLMIwIBoVntB24YREJmVkevcCNe+dh6uGu+8GjesiaEuCLSWAAyI1jY9Kl4NAfeXKuvpu2u/P4GUc6xHXE2boBQQAAEJAjAgJChCBghMISD0Us0ke+/aP3VeZVXRNN3er/MxpZlxCQRaSwAGRGubHhUvncBp0JErw/cAysC5+0KlSSzHC5JAAATKJgADomzCkN9eAm0KoAzcAyiVwgqc7f1nQc2bSIC6VrGBQGUEjqikyLG0DuV/7ChjlP1Xd77ZV2H47OiC4IFJeQKptOMuUp/oQN13lzNfQnpmvoh3Lh/OT/X0XZ5ASofJn56+U+RK0D1676UXi+RAWhAAgXoJrNRbPEoHgXoJGB1sq9SUpISUXLNuUrVVkpLjYr8YP8l/zBNI6fzJp6ZMEP8wlQsugoC/BNCF4W/bQLOSCfRniSy5kEaJP4tt1A1C9wBKMj+syrbRF3lAAARkCMCAkOEIKY0ksNJppNqlKB10aQ6Gro1oiRU4vR9lYgMGeUBgyQnAgFjyBkb15hEwnXl323RPKxPb1lcrgREYyvNRJrZwkA8ElpgADIglblxUbQGBQHcWpGjNbfIAfGZT2X43kGOgaAOm6bZhgzwgsOwEYEAsewujfrMJaP3a7Jttu7MW29XYfbEwbYJju7KRCwRAoE4CMCDqpI+yayVAgXvrtSrgS+EuHgCBuS7SxFiO/vAFIPQAgXYSgAHRznZHrTMCMutUNB0mzVdh/QIXWSxsDRNINf0Zgv7tJAADop3tjlpnBJwXf1oOjumZyyRVkRsEfRK/8wq6MNwgIjcI1EIABkQt2FFo3QT6C13VrYUv5duNgJBhaGA8+PIYQA8QKEgABkRBYEi+JARONeIf+k0Zxzsvnti0apDwVN1umzGIf3AjiNwgUB8BGBD1sUfJNRKQmD2xRvXFinZ5gUtMIKXSXixWGQgCARColAAMiEpxozBfCKRGd3zRpVY9HF7gWkswtOs+qZUZCgcBEMgIYDEtPAjtJJCmx3o1PJSuPC16tamURHBm0NWB/eyQeet19N6rcd604+l4BU5lko3xa4WPXYaPFi4MGUAABKQJtN2A6EwA5b5gq/7gCTllnXYmBPuu74S6/pzGO68ckja8i27X3v9uQxmJxaVM/Pm7v7whqpyoMIEVOI3csuyiVZsh7J9/96gTpKvrQRquTybprfzYvXRJnexfsYsnmZSHcxBoAoG2GBD8Dx/RfpX2Du0bg0/6eGrjl3J3sPP4+Jj2Y9qr3CIqjHXkmRKHuq7T8ayN9TuhfVxfPsdWNQFjNmSKTP1e3lpgAint6QqcNx88Wu/956UNo/WGDsKrRpsNbWjdFF6dnZRW4dMtvGKeUb2/KvXuv/7hRBl9TPNjHJvUfLHyN3+JYVQ8zQtXloNAHQZExxFdN2f+dUq3Sft12iPa826cj18CvHN+3rq0x7Tfpr1LexlbRELfon2LdtahyMa68hbRfosPaLtPO69vcEg7tgoIRHsPI6lifF+dkuIf2Bh32nyqIxsNp3+5tBkE4fXeEzICQ7XOtoJSFCrKhkPeLeX/XRMZk/0v3uz99Rn17u/+GJsk/SwJ/3r/k9df7OYVVVW66OOvOyJl/XjpxHZEj0v5WXcaCaijbBe9h3mZf/xru5VwhzLGP/l7SId6+B4YvzU61s8EW5//z5ce/+qD7w7I0O2YJHx7kh+vc6PD1QOjzHH83ss7o8xjB1UbEB0q+9FY+TaHLOPxnIz88t2m/SbtfCyxdUjI1mA/pE9JQyIiedzY/Cm5bZIw3lk263tIO7YSCfDIDiMkn5bWjoVElSRGb9CL0km2D3V897ffRxQL8xYZDVuBpu8LevM7VutpJsZEOtAReSn22JhI0+TeR28+d/h0wnqu6LPVRxIl67DHL5l9CVlFZOjQPCBDr3Pt7rcLsgXdeQn0Myril+q8NNL3spc08V+kuzH6hIz2k+nlp92j9y5fG91bMyeml3mjs0taB9tKp12Kz+IflNlm/qx/4AOahTaivx2lEn5XHNI+toURnUQ6c7uNXR47rNqAGCu6lEM2HHZpXy9Fel/oFn3wfkg7v5i7tNtsEWW6RTt/lrl1SPgB7VwW63tIO7ZSCASvibx9KLiwFPWEhGYTSCXOgaKxkDpWYthwUCvhLTIYIvoFZiXDKhOVF+ggeud3f7xl0uS2H4ZE0OUXsFV9xjIRxjK/d8dKOj+M9r7Zyq/7/DqmT9Kfk+TH59LLPwrCtVv0C39hQVrz/9v0/zmTZN/rIxmDmV1H3yHX7v7+OhkRx0fbv9wdJRo/oO8b8lhcp0uHFy6HAV3Lno3xyxeOgwtnzT3pkOpHtO/TXtVDvDUoc4M+i257lIH1jYpmdEjfobwHtHPZVTGiotqzGZ11ezlX2PvVKU/d60k/9L9yBmUhgLsq3vnyDwcqDI7YeLAQIZKFYyrIkDggQ+LRb778fktEqK0QbU5ss47nC8LghfHzKo51uHJLrJzTwOa73Lp49j6Q8bBlLSDLGHTjncuHLjLYuKD80bAriGWxbvxhTDryWvD1yW0ZDIhNqtQD2qPJylVw3qEyuOybOctap3RsOORNn1NsoWRcNuvcKZQLiRcTaE0ApcAXbZrEi4HKpnj3X/+43XvyzCMKcNySlWwv7dyQ+MMBj/Kwl2SfkzwhIsacSbNf8PaKFMxZzPuQQ3jgbhjnKGWUhL0PoxPLA4qtuW2ZdZQtPePZYINuEPa2RheDlS3qujgk7w6/s2ZuTTcgtqlmn9I+t5Izay93Y49ELTIKOpSGX9wR7XVvHVKADRn+xCZAoFUBlIF7ACV9MR0LYM8lgl/MFHtwpFKzTzGRdX9XTNWZAjW3VtRPD6beLP1icCJThH5WRs5iKf0AP0HvAxUZhNXq74P3YUjamOSeUfqt4bnW4fU0Ob03PJ/12WQDYpsqtT+rYjVc36Myr88ot0PXfXth+6jTDHz+X5acGtuH4MJZxPsTSLkOVWW3q1zU+Sxd+fpvvvw/G6H6aa3dFfP0O78X3F+5tPr2+Xl1R4E2XZHSgqAjIiePkJU1+q5NRcsjd/1GnqJF0oQr/P5y2iS8DyMF0hV+l0a/+t+/f2H4YyjP91BTDQhuaJ+Mh2E7sE6d4cngc50+P6W9Mzj36YN1YsOGdcTmRIADKEW2WERKaUJ4AinXTcZlvkiL9/7t/10P9OqDbA6HRYnruh+oE6OSnQ/e+G9v71/5+UkdaqSJ7tZRrm2ZmffBmF3b/DPzmWoMoEx/FW7O1CPXDffYh/FiBkM44/T/JzcoluW6VvlmwW2iAfEiVZxfyD5u/CI+mFDsFp0LfOlOSJU77ZAo1hGbAwGpAMq6ggvzVl3C06IrmEDq3X/7v7fSJDnMW6860tFEVV16eV/78I3n9+so/7zMs+PzY4ejNO045M6dVSJ2YHphZp1/gU+/J3hVwHsi6n0YVI2Mhs94fhfqyojSMLmTp8ZNNCD4ZdfJU7ma0kRU7s1B2Vtjx4NLXn6wvpGXmjVFKakAyrTyWU8LEZZYgbPsCaTYeFBJuluoYhUnTo25s3pp9cpHb/5C5uXtpP+lE6fsY5nHI/nHLosd8q9399iB2eqkT3o/n31X5o42estNkqz3YahLmqwc0lSrG0onJ4OhoMNbMz+baEBEM2vjzw02cjZo58+mbAek6HpTlPVJz2GfoYhOa9UFF9roq5XACAxV3gqc3hsPgy6Lj978+5t1dVlMtnvffT1rkqLJ1PPPg781z85P4Xa3PO/DQK+Sh3JKjBwpw/vAtefngOJA7phe/pEdyzaRlNvTKZebX8RHtDfphdwhfW/Svks7tgIE2K1vCqSflzSv5T9PRln3+Nefc+BaiStwvvsvf9j02vMQ6OOeSd7+5I3nu2W1kb1cNiCmT1RURGb65yfcxfy4SJ68adlQL9P7kOlR8lDO/rwVad4qT0nH3oeXDqfcmHMppa4y9cP0BGmXZqGktu9v8fbLu8Pj/mdAM2CqmUYhDIiLtCTPmmQ8DOu9TQf7tI8eqOENfM4jIDQDZQWxAfNqsfje6sbiNPNTlDVJVjaHgqb4I5fv5jmqc7wCvWBj3Usfp4Hq0iRQ9D/CM/Wlm3OyjW5xl8XaT9Z2P7jyC6v/rej97/h/cz3+X7+8PRIqeGBoWK0W6RoO1gXVuiBKr9AkeFKW+gXJ5ydlDuWsy/twYZrr86pmR/PucYJ4+/LNiSwXTmFAXMDR+hP+59+ifb/1JAoAyAIoBb7YfA+gVAIrcKYJT1oju/Hskmc/0lDN1P0X9AXNtJ67CBbNLbG98IVGXRZk1NygLov7F2TnPMliCsLkgEaSbHKWaO8/vop3/sFK1twiTfqD0hI92uH63HIsb2YvX0P98yVvZQ7lrMf7UC6wZTYgYkLHX1bHg/2EPnlfp70z+Izo8yrt/OnD1iUlPqM9pp31nqbzBl1/i/aI9jI2lr1fhuClldmSAEpyZb7m3IYlxHgkT352S5u046zbQAAZhIfkabj3wT89FzvJJAOEuixufPLGc10bOeyyp4WiDihvZ5ifXkIH1JV0LD2PRqD1sZk9j82w+IWfQShsxA1KdH/5LlS9n6CkoZx1eR9y1to62TIaEIdEg4eg8At42sYv5eG9eJCgQ5+7tF+nvY4tpkJv086f07ZJnfcpUYf2XdqldY5I5jrtXCa2BQTaFEBJKKIFOBbc1rmjuxcIGt3muAeaQvnm6ILLAb3wVS+5/aGr4cA60BTDZIDs2qrDXRbkdaD/88k+GbPOSyyT3Gu2sqflI8/QCS2oNO1WoWup0Z1CGXIklnj55ihmkKQ/lFN6VU53A4gXtXoS569HNSklfFbVaLq4lGNKcoX2G7TzcZGtS4m3aH+R9i7tVW0nVBB/EfAe015k61LiLdrL0HmT5GLLQUBiXoRhMV4HUH74zcZQT/tP+VVGKTZhz16fQc7hZE6v/+Kaq9chi5VIUpaza6MXB6rS0s5HfeNhpgRa+OjraOZdmxtrhb8zp5ZSRgxB/+U7tbhSLkoP5ZQwgHiqaWmvkwS8ZTEg7hEMfgkXNRwmGXaF5EzKnXbOZbHBE9PusnUpM8txrfu4DlfHT3A8j0A7ZqAMEh3No5DnnjGy8Q88ZNN1lkmnyZwml68mDwbP7WBrhGTerGDtAbFcyFqHP6GujEfrebjnSnN6HomfK/2MRNILapEn5pbzyJ8Zus68LDyUU2fLYs8sLccN8j6kvcMcCStPsgwGBBsPW7SfCNHrkhw2RvizrK1LgiXL4LpLGFDD+kbDA3zOJ9CWGSglJpCiL8F4Ps38d3nUhUndlkJm4yFRyTXbyZwo6HX0As+moyYPhu3cDtHdh3vUhXCkdd4YgrSjgt7N/MTmp5T7dSu3IBV7Y9wnXZpf76l3BYdyDro4o6nl5Lzoq/eB1W+6AdGlOoj9EzGQwcYv5BvDE+HPLsmTNB6G6rHObw9PHD87lH/dUUY7srcmgFJ33BtUbgKpleBn1128D0Pj4ZPX7QIchywyD4bRV2yno866LN7/7gEtnVz4e0zrYFvUC0FLOg/rZf0puKBWf9IoMpQq3iS7YcgoJA+Ky+av94Fr1XQDgl/E/OIsY4tJ6L0SBN8mmd0S5LJIlsvyJbaOhJBlltGWAMrsJeVqKAlPIOXifZAyHpTpCUxHTdNIG21prJv1IOxtyf2P8aRCjpvQUFo2rEqfNGpGVaWGcnIdqIhoRjG5LvvsfeAKNNmAOCT9u7SXuR0KC49JnrTMSRX3Jy9Ynm9Y5mtNNrkASvnRCbKN0HN/Fozc7IS/+fL7LRfvA+XdcfU8MN8P//H5fdsui2H7ZNMHJ0/oh5A+GV4r8kkLH/Gwa5GNXpyP3QXl7YKZX5LTlNVkrM6XvuCu0FBOpzpkKvrtfWAVm2xASP3Snvc0xXSTd6mtCp35iygWUHhdQMaSi5AKoHT8wiubssAEUlrmmcxqGgThddsq84yQH7zxd/dt85eRj+MPHNY3EByRobsS9XNd0dLV+2ACc8PWIOvX331VTtc6sB6+ex9Yx6YaEDHp3qW9iu0LoUK6JCcWkrVIzGeLEuS4DwNiAaS2BFDyEr8LUCy8LbUCZzZltTHRwgKnJOCui7VnfrI75Vbtl+Kdl/dJidhKkWB10yrfZKbUdCcv1XE+mOfCqmiKJTnsD4d2M8pdh3K2wfvADdRUA+Ke1dNllym2y/ZULomX+lNCZ1yIZ1zHZUkCrnEBQ13SJB4e+vmpN1z1ol/ZInUM0kuRrS4mTW67djnYlp0nnwnTnTzpJtPQMEGhbgxe38N9GyyoZSWoP2eCiqwyU6Y0Ob3NeZ27YxyGcrbF+8Ccm2pAHLPyFW1doXLuC8nJI0ZK5zxltTKNbACljOu4jIaIsgmknPu1YyndbLsv2Pvw0ZvPHUrpUYYc/uVslCr+PZGmHddug359zoS+V+0X1HKZNCrzPlB3ENeFp+bu18nyr8NQzrZ4HzLOlnjrzHZChbs9HMW07xZLPjN1lTozIym9Z1aozTdaE0B5qjZc21l0kTDb7gvyPrjWo5L8ydkdq3L+krxtle9CJhoRIrLZLajlOmPj0PvAVUgTN6Pcdihnm7wPzLmJHogqX8TMiLdu9tf+D+cX+ue0VwI5JQm0I4AyCEPn+Af6No8lyL/72+8jWzm0BLeIDrbl58036Ooprmvg/jzyiBC34MNBLQPTyVvf8XRS3oe+TDdviu1QTnfvA43G8XTWyfG2Gh430YAY6t6kz24NytZRZg3VrKfItgRQytQzFTH6jTYbVq1NU0xLDNu0Ktsik82U3zScM7Io6uks2vnHEsksPq+FpPeBK9WfWdNuaGwGxWIop4T3QVMXVl/3TAvv/zTRgOh6TxUKLj+BFgRQikwgRbMbSn0hGh10bB4sY3pVBjDbqHgxj82U3xQHcVGI3RkZL127nOe5irr/+cXr4n0gnW9PfcacjCGLoZwra9fPKdgdjXfD2EmoNlcTDYhqCaE0EJgg0JYASqUEJpBSyVcT+KxPA0s3PbmjY+tCa8hIL0PSt/ivZ5FASoEJvwovqJW9eG0NoNmTLdGoG6dnr8hQzswIMnrL5XEZDwJ1kVNlXhgQVdJGWUtBoC0BlBL1JJdsLNboY4tXFZH50Zv/XaQLpUiZzmktfj27DJ8c6htodw8EGT/PDuUt+uy/eM3uonSz7vMEXFO9D5TBeSRGoaGcYeS6amjTvA/cJjAgmAI2EChEwD1grV+c22Q3hVS2SCyxAqfUBFKZ+hbBeTx806LqtWex+/W82nFVPE0MBVI6bkH+ria3oEPuHrt8OEtb15EY9HbMHXPj0gXD+jfR+8B6w4BgCthAoAABmcBCnuxGOblYC6hslVSrIPcX6OwC5FbgVGnxFWLJA9KdrZvPd2oyfNaUu7cm54JarkGHi6f/dhuJkTeWwzUAlJ/CJnofWG8YEEwBGwgUIdCKAEpeSdC2X3oAU3gFziJNhLSWBE4Tdw+EyjfxWJneB679rK6NvGTyDuVsq/eBOcKAyPs0IR0IEIH2BFCuOnsftAncf83iqauUQP+lWzyAc1LJRQGd/H/kslz3Yu/DUCMKsrTdcgzlbLP3gbHCgLB9uJCvlQQkAgv74DxfwltgBU7qT/+ilQ9J4yvtbkAsQqDD8GBRmtn358c+jOejIbwOz+DioZxt9j4wZxgQ408bjkFgIYF2BFBqrV5biGJRgjWZCaRGxQQWs7lajtwYlVnbQfHJmKRUNcq93eaNCHH91W6Ss538dXWLJZk3lNO1HlyHpsY+DPnDgBiSwCcI5CDQlgBKQhHlwDEnibyHxSQWv4wtRm7MqVRlt+wMuLOuiIIm/cFdzuwRIY6/2uN45x/u59bPdYnyOUM5HevR2JEX4+xhQIzTwDEILCLQigDKh9EiDIvvyw9RpZdq8QA/Grnxzr//6YXF+nqWQlt4INbC4nymVtvtV/tUkYOLrr/ayftwY578p+65jiqZMZQz2vt20zXIuOneB2YNA+KpJw4XQGA6gbYEUErEedis5zCd+vlVkxqrYa/6P0+vnEvx/8h2CnFeDlykdq6/2lmJKZ4frpfLr3aruRJOV7suTGYN5dSh2naRa1UXlwJLygsDoiSwELt8BCRerH0q8u59SdoSE0jRioKxpE59WYnVCzINTSSvS5kSk+L60pBZOY0kPBBTPCgrKb107YcG2/xi768waj8SY9pQzsEPieJtNNZANnUZy+7NIQwIb5oCivhPoC0BlLrj3haCE0gNlNFB2LXRi35FXrfJV1ce0vetwmULrGFxXmave35sdzT5y911rQiXX+xOQaHThnKGGt6HwWMBA8Lu/wO5WkigDQGUtu7zC49DSRNIrfzNWnyhnLwnFAfx7m+/j/ImrzMd8zdKUf96sY1m3IyL5Zid2nUCJpY8uaBWf9Koar0Poxo6GVcXh3JmhpBF+4x0oYNl8T5wnWBAjLcsjkFgHoEWBFCKrMDp9IU9uwH2r/z8hFYNsHPVr4S3Zkv26c4ZGQ/5ZnIc15q6aeLxc/dje7d/VrZWLwx1cJ2y2sX7kOmQug1LHR/K6TZ7ZnPXvBi25eQnDIhJIjgHgSkE2hJAST8poinVL3RJ8tfwZMGpSe0mBjIm+uffPepMyvPt3C7IkCZWkgqgHALRjotq6XB9KMrtpRt0nX+xu47EGAzldDWEmIdzXYZQPfmEAeFJQ0ANvwm0JYBSa33VtSXkfw2faxSk5v75WbGjFfXTg2I5qk1tO8RRK2nvA3dBJFYjXkbEBgtqub50jUnuOXepOI7EIKN6g+vlZggtn/chYzJqcByAAAjMIdCOAEr6msu+LOeAWHhL/NfwWIkf/NNzMX2hn4xdyn9IXghfYyGyvvVw5Vb+ypynpF+1987PpI4CO8aj4vvdMDpcdTDaqBsl7R2ORFoeuI7E4IBQV0OIVV827wPXCR4IpoANBBYQaEUA5YffkPFQvP99Al08cS5/epbesRVqVsKDmw/+tG6bv6x89kGGvC7Eq7G0XoE2XVeZ0Z2HuyQjspXDC2Y5ex9Ghafd0WHBAx7KCe/DdGgwIKZzwVUQuEigDQGUp31X7cWKFzszRrm5vnMUt/KzS/s5kk1Noo3pnP7lye7UmwUv8oiJbNRKwXyTyaP3v7tluzJl/lUpJ0udf54mEnNBBA7DHfMvmDW/Jv27Ts8lDeW0bZ+hbsvofeC6wYAYtjA+QWAGAdEASoGFimao6Xw5CMOrzkLSJHaWsUBANhpDa7ty6FftR2/+/c0FRSy8zc+EDs2D4G/NswsTz0kQ7f3HJhk1u3OSzLnFa4OcxXMS2N9as//FPixUa3tvlrRh5OZRsa8Hs3AeRTIE6uEnDAgPGwUq+UVANIBy59WuX7U710amm8ZtyNy5NguOesntBSku3DaaflEn6TWKodi9cMPihD0GOtRH1Kvdscg+ykJBkxsqWDkYXSh4QKNd7su5+CcKdw08nBBX7FTW+8Bly3hUitVimHpZvQ9cPxgQw1bGJwjMJLD8AZQiE0iprD++OxOj4I0smDKvF4LSrV5avZLlcdCBA+mu3f32aNxjkP5Z/2Aj8n988Og6hfUf2f9KFxjeOEfxfuChxeqnc2TmvSXtfeiXe3act3zJdMvsfWBOMCAknxbIWkoCMr/MKTzRGLs5DCqh2ttwL8Zx6F9BBXoqubEoi1HJzgev/+JafxKqRaln38+6sYK1B5QiGk/Vf9GOX1l8zB6MNE0O7Y0Hdosnd0rzPoyqUIcBIe994Or0WVVfn2X2PjBXGBBMARsIzCMgFkBZkXt/Xl1m3JPopiGXejxDfCmXP3n9Oe6WuD1NOHdZpEZf+fCN5/en3S9yLbr7cI+7LFxe+FzeNA9GET3O0wbdz9972ble5/KmHzmtITFd5MKrJnmy0ChcKGRWAq26s26VcX3ZvQ/MbKUMcJAJAstCoC0BlLwCJxkATlua9Cp3E/OIjLMfz67z6Iqh8iZV91Z/unrT3evwdUevrH1KriMn70zWPcQrUabqpsAwWUUv2WvDupb6adIflK7uN6bW6v5RCUNSh4x4ciytA6e2HMrK87ns3gdmUN3TkYc40oCAZwQkfpn3q0RLeHscQKmVxBer/Aqcix4HNhJ0b9CVQRNMcZfFh//4d1vOxsP7320r7rJwMB7Y+GTvhQrSRxw34erBYBbUDSY4N8J8uoG2XHdkvtiZd9Pe2c7MmwI3qqxPG7wP3CTwQAg8mBCxzAQ4gNIIVNBU/us8r9LsWncdUaBKWoEzTx04OPI3X35/IzUq/uSN57t58sxKk3kLwt4teuHfpECD+VtwccGp6GPi+OPqhgoNeXPCzRFTLfH8ZKrE8fbLu/OVkrubJuaEum7kBM6RxC9c8j505yRxvsUjMXToLCaXgDZ4HxgEDIhcjwMStZVAFkAp8P3vdwAlvfQcN5PqLxxFOGX/6M3nDp0EUGYeVklzO3xKIYodOl280XoP195/SF6KcJ3ad12f0XwB2QuKX7rp4vyFUgTdUuMDpunCi1Al027IX6vmhcsjMVbllZ+QWIUxNFFkbafowqgNPQpuBAEHF/aF+jkuKXxBlvSJwAqc9L701sOSBxeNjKAui/Bo5DXIk4mn/Ta8dkjakeiemF1kZjxcq7wL7DQ5ma2T3J2q3P1VjcSoxhiS4+8iCQaECz3kXWoCbQmgpOA16qZx3Nb8HWEyr2bcZRHd/fZT6rLYL9cImKfF7HvG6BOT9N6u3Hgglaoqs9IXbskjMaoyhmY/MdXegQFRLW+U1iACbQmgpCaJ3JqFAkTfeaVxHgg2EHk6aupw2HSrf1m5eTXKhDwPdbK9GOchXVNao6KC+SzOtXZepvxc1NSjSo2hqRpUexEGRLW8UVqjCLRhBsqHkXuT+BsgOqtuUtNRz5Lvfn3YbVGn8cC1cF8TYzYLNpDO9mffL+OOxCJh0/Vqm/eBKSCIcvqzgKsgQN3btDrlkgdQspfFtYp+B4hefJB5xIkOVw9oPGR08Y5XZzEHTFbVhTCv5rSU9WOaO2FeEut7xiT3Kq9jSsuUlzSypG3eB254GBDWjz8yLj0BsQDKXuwrK4kJpFTqb/3GuWcxLUFAoyzcVlcclyl9nLn0ty/flJZrL6+sX+w0ZfX2S7v2elnmLGlkSZtGXoyTL8e0HC8BxyDQQAKyAZTVT7CUF7nWupM37ex0/tZvqHM2v0NgtnwMlOzryF0WZ9dir4wH0ox/sZewlbNgVg5FS1plNA2TOzlKX7okMCCWrklRIQkCcgGUvDjQiycSOknLyF6qrl6WGieQKsKD2yDefmWLXlw3aALebpG8ZabNRlnQ7JIm0VfInR+XWZad7KCEZ7ecBbPy1K//vyje/nETg4jz8FqUBl0YiwjhfksJSM1AWe0KlcUai1fg5EmPHDajHjvkrjwrjWg4pEIPadKoLR2u3KKf2J3KlaAC2XCgsu+oNNyPd35Zwktaqlbyky/V5n0YIOFFwuip70gRIs/RbSlZTZMDA6JpLQZ9KyEgF0Dp8QRLAhNI0RdxXEmDCBdSlyHRHMNhCPwSGTeS01Gy9+Glw6H0Wj7Z6KUHV2iL/fQcCdVugRgYEAsA4XZLCbi69ofYPA4wpPiHq0M1bT/T0MS2eX3INzIkPvxmQ/XUTa1XiImsV4KNBuoSu5+enfKog0bxYpf/tbvfkREhE3hat/che+Z4VthQpve+zd4HZgkDInui8AcEzgm0JYCSui82XBcKW5a+30E9tvgpiNiYONVRsKKvGkXLhGfTVZ8/H4uOMoMhMHGamq/6I1QuHX++7WcczKK6ZPd59kZDQ5rdN/q1fvnQXYyjBLmRGK32PnArwIBwfBaRffkISMyN0KfidwClMT23yPG0rCF+9T5TA2PimLTYH2rSNyqSdaXCDhle6ypQdExbqk7ICOvva8SDovz7gXrZ3aX4Q/N8dMnjv+FaGW9+rfNIjNC9W8ab+rg2jEN+uZ4gByWQFQR8IvCru98d0C/PLXedzGdH77286S4HEkCgPgLZaJ1LP667ahD/utzluovoly29XiTDlLQ+1WeKepVcggeiEswopEkEWhFA2aQGga61Ehh4VMjLsjwbXv4ybSkTSSKjC6SAgB8EWhBA6QdoaAECINBkAjAgmtx60F2cQHsCKMXRQSAIgEDLCMCAaFmDo7rzCbRhBsr5BHAXBEAABPIRgAGRjxNStYaA1BLePs9A2ZrGREVBAARKJAADokS4EN08AlkApYDatKrisYAYiAABEAABbwnAgPC2aaBY1QREFpcaKu3xDJRDFfEJAiAAAi4EYEC40EPeJSOQRHIV8n+Ja7m6QhIIgEAbCcCAaGOro85TCQShfmvqjaIXG7LEddFqIT0IgAAIjBOAATFOA8etJcDdF0YpmVkjG7bEdWsbHRUHARBwIgADwgkfMi8PgTMyHmRWHKT54ePl4YKagAAIgMB0AjAgpnPB1ZYR0OHKLakqp0kPIzCkYEIOCICAtwRgQHjbNFCsKgL92SfTjlx5CKCUYwlJIAACvhKAAeFry0CvygjoMDwQLCxetuWcBdlAFAiAwBIRgAGxRI2JqhQnEO19s6WUnPfBGPNFcS2QAwRAAASaRwAGRPPaDBoLEYj2vu5Ixj5kaq2Y+0LqQQwIgAAIeE1gxWvtoBwIlEhAr6x9qoyc90GpoBu/cxkBlCW2GUSDAAj4QwAeCH/aAppUSCC6+3BPGbMhWaQxyT1JeZAFAiAAAj4TgAHhc+tAt1IIsPGglb4pLjztHYrLhEAQAAEQ8JQAujA8bRioJU8gWywrTA5ooqdNaelkkBwe7bzalZYLeSAAAiDgKwEYEL62DPQSJcBzPejQ8HDNjqjggbA0OUX3RRlgIRMEQMBbAvRjDBsILC+BvuGgb1ENoxJrGR+9d/laifIhGgRAAAS8IwAPhHdNAoVcCWRdFaq3pfura0au8hblN2G6sygN7oMACIDAshGAAbFsLbqE9Yn2vt3UYbCndXqc9rKJmsaGSup1qvK6CkwnCIMXTKojpZKOUtU417LYh3deGdNnCRsAVQIBEACBKQRgQEyBgkt+EQjIk2BotkhjFE38pGcEQGqa0sGQ4rxXtQXdNHlyu6rSUA4IgAAI+EQAwzh9ag3oMpWAUexV8G8zSXo7xsgL/xoGGoEACFRCAAZEJZhRiC0B+ZUybTW5mI+7LuKdy4cXr+IMBEAABNpDAF0Y7WnrZtY0mNVlUWd1uOtCI3CyziZA2SAAArUTgAei9iaAAvMI6EBfnXe/+ntB1yRPrmHJ7urJo0QQAAG/CFQTqu5XnaFNQwj0V8tcfeSPukPjATNO+tMm0AQEQKAuAvBA1EUe5eYgEEY5ElWUBMZDRaBRDAiAQEMIwIBoSEO1UU2a++G6H/WG8eBHO0ALEAABnwigC8On1oAuIwI8m6QOkz+NLtR0QLNK3FdJeAMxDzU1AIoFARDwlgBGYXjbNG1XLInqJGCMPgl0evvovZf369QDZYMACICArwRgQPjaMi3Xqz/7JP3+r2eLVXp643NMElUPfZQKAiDQCAIwIBrRTO1Tsj/7ZOUGRGySM55dMm4fcdQYBEAABIoRgAFRjBdSV0CghtknYThU0K4oAgRAYLkIwIBYrvZcltpsVFCR2Bha2TNd2UeAZAW0UQQIgMDSEcAojKVr0uWoEI/CUOrHDRWsREGgXzPKdJTRVoYFB0TqIO1qHRynZ8kXSq3eh9GwHM8JagECIFAfARgQ9bFHyRYEoo+/7qgfVaefNSAjQ9M+a0u66pLqxr/GzJGzCOE6CIAACIAACIAACIAACIAACIAACIAACIAACIAACIAACIAACIAACIAACIAACIAACIAACIAACIAACIAACIAACIAACIAACIAACIAACIAACIAACIAACIAACIAACIAACIAACIAACIAACIAACIAACIAACIAACIBAywj8F2d9o7ASUXbEAAAAAElFTkSuQmCC;" vertex="1" parent="265">
                    <mxGeometry x="16.529999999999973" y="23.93548387096774" width="48.674516129032256" height="18.806451612903224" as="geometry"/>
                </mxCell>
                <mxCell id="268" style="edgeStyle=none;html=1;startArrow=oval;startFill=1;endArrow=none;endFill=0;" edge="1" parent="1">
                    <mxGeometry relative="1" as="geometry">
                        <mxPoint x="496" y="250" as="targetPoint"/>
                        <mxPoint x="445" y="249.9999999999999" as="sourcePoint"/>
                    </mxGeometry>
                </mxCell>
                <mxCell id="284" value="" style="group" vertex="1" connectable="0" parent="1">
                    <mxGeometry x="500" y="275" width="90" height="45" as="geometry"/>
                </mxCell>
                <mxCell id="260" value="" style="rounded=1;whiteSpace=wrap;html=1;strokeColor=none;" vertex="1" parent="284">
                    <mxGeometry width="90" height="45" as="geometry"/>
                </mxCell>
                <mxCell id="262" value="&lt;span style=&quot;font-size: 10px;&quot;&gt;&lt;i&gt;&lt;u&gt;Governance&lt;/u&gt;&lt;/i&gt;&lt;/span&gt;" style="text;html=1;align=center;verticalAlign=middle;whiteSpace=wrap;rounded=0;fillColor=none;fontColor=#333333;strokeColor=none;" vertex="1" parent="284">
                    <mxGeometry width="90" height="19.285714285714285" as="geometry"/>
                </mxCell>
                <mxCell id="263" value="" style="shape=image;verticalLabelPosition=bottom;labelBackgroundColor=default;verticalAlign=top;aspect=fixed;imageAspect=0;image=data:image/png,iVBORw0KGgoAAAANSUhEUgAAAKAAAACgCAYAAACLz2ctAAABdWlDQ1BrQ0dDb2xvclNwYWNlRGlzcGxheVAzAAAokXWQvUvDUBTFT6tS0DqIDh0cMolD1NIKdnFoKxRFMFQFq1OafgltfCQpUnETVyn4H1jBWXCwiFRwcXAQRAcR3Zw6KbhoeN6XVNoi3sfl/Ticc7lcwBtQGSv2AijplpFMxKS11Lrke4OHnlOqZrKooiwK/v276/PR9d5PiFlNu3YQ2U9cl84ul3aeAlN//V3Vn8maGv3f1EGNGRbgkYmVbYsJ3iUeMWgp4qrgvMvHgtMunzuelWSc+JZY0gpqhrhJLKc79HwHl4plrbWD2N6f1VeXxRzqUcxhEyYYilBRgQQF4X/8044/ji1yV2BQLo8CLMpESRETssTz0KFhEjJxCEHqkLhz634PrfvJbW3vFZhtcM4v2tpCAzidoZPV29p4BBgaAG7qTDVUR+qh9uZywPsJMJgChu8os2HmwiF3e38M6Hvh/GMM8B0CdpXzryPO7RqFn4Er/QcXKWq8UwZBywAAAHhlWElmTU0AKgAAAAgABQESAAMAAAABAAEAAAEaAAUAAAABAAAASgEbAAUAAAABAAAAUgEoAAMAAAABAAIAAIdpAAQAAAABAAAAWgAAAAAAAACQAAAAAQAAAJAAAAABAAKgAgAEAAAAAQAAAKCgAwAEAAAAAQAAAKAAAAAAAgfBwQAAAAlwSFlzAAAWJQAAFiUBSVIk8AAAAp5pVFh0WE1MOmNvbS5hZG9iZS54bXAAAAAAADx4OnhtcG1ldGEgeG1sbnM6eD0iYWRvYmU6bnM6bWV0YS8iIHg6eG1wdGs9IlhNUCBDb3JlIDYuMC4wIj4KICAgPHJkZjpSREYgeG1sbnM6cmRmPSJodHRwOi8vd3d3LnczLm9yZy8xOTk5LzAyLzIyLXJkZi1zeW50YXgtbnMjIj4KICAgICAgPHJkZjpEZXNjcmlwdGlvbiByZGY6YWJvdXQ9IiIKICAgICAgICAgICAgeG1sbnM6dGlmZj0iaHR0cDovL25zLmFkb2JlLmNvbS90aWZmLzEuMC8iCiAgICAgICAgICAgIHhtbG5zOmV4aWY9Imh0dHA6Ly9ucy5hZG9iZS5jb20vZXhpZi8xLjAvIj4KICAgICAgICAgPHRpZmY6WFJlc29sdXRpb24+MTQ0PC90aWZmOlhSZXNvbHV0aW9uPgogICAgICAgICA8dGlmZjpZUmVzb2x1dGlvbj4xNDQ8L3RpZmY6WVJlc29sdXRpb24+CiAgICAgICAgIDx0aWZmOk9yaWVudGF0aW9uPjE8L3RpZmY6T3JpZW50YXRpb24+CiAgICAgICAgIDx0aWZmOlJlc29sdXRpb25Vbml0PjI8L3RpZmY6UmVzb2x1dGlvblVuaXQ+CiAgICAgICAgIDxleGlmOlBpeGVsWURpbWVuc2lvbj4xNjA8L2V4aWY6UGl4ZWxZRGltZW5zaW9uPgogICAgICAgICA8ZXhpZjpQaXhlbFhEaW1lbnNpb24+MTYwPC9leGlmOlBpeGVsWERpbWVuc2lvbj4KICAgICAgPC9yZGY6RGVzY3JpcHRpb24+CiAgIDwvcmRmOlJERj4KPC94OnhtcG1ldGE+Cp1x3U4AADe/SURBVHgB7X0JgBxVtfatql5m32cyWSZ7AllYDEEgEGQRooIE488qsskaREAfi7j8g4qAgCgI/oDwROGBID5cERUQCCCQEGSPgeyZJLMmM5mll6r6v+9UV0/PPj3TPdM90zfp6eqqu5771Tn3nnvuuZrKhC4UaP7m2aXhdnNf0zanaXZwmlL6VN3WJ9lWqAQRi5XSipVt5ylb+Wxle3HPwCekaXpQaVpQKbsZz5uU19OItHVKs7fatr4Vz7aovNx1pVX6R9rF94W6FDqOf2jjuO2q7qsnTdJN43ArHDhUM7z7gxYLla5VRmliR6+GftGFwvhhWWFl2RtszXxL6cZqzfCvsXPy3yj/0YMtQy8kfVN2IU/6NmNwNW+qvrIovLfhM1ow+DkV6lgKTjVd2RaYFpCmgZFpIAc/yQwszyKy8S3loVyPYSrd+6aWnfWCVlD2XGu29c+qr9/RnsxqpEreSab26Dez4bzPzreyvCfotnGirdlLUCPP6NdqgBrYVrsWCj6veX1/Cvlzfzfhp4/uGiBF2j4ekwBsuHzFFDtknqV0dY6ytX3B4tBB6dTUSH3JmW1l4vOi7vM8pnL135Tc8sSetEVbLxVPp17ppfqdt2qqL8rxNe1eoYLBcyDijkHP6SMiUjurkPgr4lBAiAsd17rerrLzfmfnFjxQ/r17nk98gSOfY9oDsOG846uUP+sKW9MvBPkKRp6Eo1CiJePI921DvzNUOeHXk6rvaxuFWiSkyLQFYN1lKxZpyvwGBNSpkK4Y16VtU4bQkSKanXSa3mR79Lt8nqKfFt7xAFQ/6RXSrtdqrzp9qd7WfoPSrKMFdBpl0zgNrojGjFrT9b0qJ+/n3tKptxRcf1NDulAkbQDY+JUTFloe4yZQ+sRxxeziQRLHi5bVrHm8t4Vycn9ceduvW+NJPhpxUx6AjVecMtUKmTcoK3w2OB7YHaqc8rUeja5kmTGiWdd3KZ//utKfPPYQyEVemZIhZbvSrj7F11gTuNbWtesxm81KSeqlaqUEbvyD7jW011VWzlfLbn/kjVSsbkoCsOHCE5bYhnE/GN78VCRaWtWJOLS5/GLeFc4v/laqieWUAmDD5V8qwCLAzcoMXwKuh7qlVPXSCnddKwsU2qCl17tZ8/kvLL394b93fT56v1Kmh2vPOf5I3Z/1CJStUzK4SxIgnHVvG5LlrpbK4mtnVP+yI0klDTrbUQegXV2tN+5Y821bN76LWtO0KROSSoEIN1Tqfd3jPb3kZ0+8k9TiBsh8VAFYd+WKiVq7/Qhs5o7OcL0Beiphj6MA5PJem/Jnryy749GHEpZ9nBmNGgDrVq44WguHfgORWy5rtnFWPBM9ERQAGENBZefk/qKsZOFlWnU1DGpHNowKABsuXX4edKb3AniwKAYRMuxvZHs9WppLe9h2K3tVuGjaiok33VUXfTwCFyO6joXmavWXLL8R4HsQlzRnRxiVd8Apetz/7aS9ZqsjvB11rzde/5WFI0mWzhokudSN556bledv+iW0K6dlMJdkYg81e9MEP9B2WwUFJ1Xc+vBLQ80mnnQjAsCdXz4+15OX/SdU7CiH47msP56qZuKOGAU0u0PlFJ5Zdtuv/jfZZSZdBNeuPCXPm+39CxpyVKe4HRHcJ5t2Yzd/W8vSOtqeaLzmnC8lu5FJRQLBp5mBp7Fl8YiM2E12VyY4fxFSmoV15PPL7njkoQTnHs0uaRyw7vyT8nUr9AzGfBHwsUWZkFYUwIZm1dH6YP3V58ASKTkhKQCkJYumh5+CimVJp44vqcw2OdQZz7myu/ixsVM60P5g/TfPPTkZ5EgKABt2hB5QHt8xneBLRtUzeY4IBQBCOxg0VNOex+qvOefYRJeZcADWX3zy95Vun5UZ8yW6q0Y7P9uv9jb/rrH6awnVEyYUgA0rT/4K1nW/PdqkypSfYAq44tiyC6y2PX+uu/HKiYkqgVknJNReunwpNuI+h8xS3/NAQlo8TjMJY7nYsla3HHHo0hnnVQ/bnCshHHDH5aeUA3yPZcA3DkBpgL94fYtz39twTyJaO2wA0p7PG2h/GGbfkxJRodTMAyok0SLxTxI+rvcDfjsFpSYZWCvZF6Ypo7X5vPpvX3TpcCs6bAA21rz2LWUYx4/ZSQcxYeHDdVITP2jantBPpAsFhLhmeWkQ5F1pqPtJ7ZWnHDic6g5rDFh36Rc+pdnmc3grhg3k4TQiaWkBBi2/QGl5+cp3EPTpPh/9syS4OHYBge1kG1z7L2U11sPNJZwcSC8nuLiEZMf6Ruqt7HXhJUsPqjz76iHtQR7yhKHmos/n6Mp+ED5ZEt0jCSHRsDMRjqQpzZ+t9IJiZUyfDQBid6j4D4ygZdiFRDJwSYhs9Y3rld3epuyWphQGIMDnsi5b7WNsqfkpWnLBUMgxZAB6besHWKmZOaaVzRC72tQZSps8XWXNXgAmpVEpi0kgZHKiuBMAbXhhGmkYsJD0qtD0dcoCILX6HfCdSdmf4gH117Z9/JXG6y98suSH9z8db22HBMD6K754iGoPXRFvYekXnxvIAAaAQ+keFd65VYU3f6Ssup0AIMAh3HA4rSIn1ZUxYZLSi8uUbx6HU2QtLnsZTt4jkbaznlZ7632NN1+7sOS6W+LyXxg3ALnO27Aj+IAyXLkxEg1NUBnSt51E6zdXkbKSIBrNBAADa1cp88N3MSEJK80TN/mieclFhIvqAJ5n+hzl2/cA6tjwoU/KNAp8EQPtU+ztH9+KWl8UT83jpmDDzvDVePMXxFNISsT1QMzhwwnFoDgMfInbjXAypYO4JDDBYgIcIYpFXPO/+HoeRusANo35EsjksukFu64NR1tsM3zBnp9974HCr373ta4P+/4VFwB3XXHSBBWwr+s7uxR7gr6VYGhKLylXelnloAFoBzuUuReO68kEuwDDzdTJerh/uR1oDAXNaqq7B7rhg7HDjm/qgCEuABp7AtUqOytvUBxkwKJHIgI6l9wrK1f5P/kplXX0iUrPyibrwocdL+iKVKQrEKymerV7ywZEMyR6l6gJqzrGmBEx7NQltj4JK2RkMiKdcdKAuXXTovq8+gtR6L2DKXjQAKy/8rR5qqODGadPINAwedBLSpQOfR5cf6hwQ50yG+tUeHc91Cp+B6Agnk1FM8df4TBEIkDXCu4XwEkJEMVyP0mt7gr7rr+SVGRys8WQRQuFbqi9u/qRisuq9w5U2KABqELhH4GbcKCSXoFMheMrGWMBS81Nytq1TVk7tyn4z4sCkJMKOb+DQDSg4ST4QjjQSBhlN85ErsU5GNUnkaWpuIjCPPlyAOw4jQk/uuUfV2apFhltsawJxq6d30DNbhiodoMCYOMlJ+E0oSDkV/rhrwsBMLtsX/+est5+XVnvrwUAAaABOj+qhollTgQglNJafqFS2RDp8boJZvp2ADyITzMALyiPLaBLrdPrB0UxZ/G1O/6r5vk/3j3p6M/X99eAQQHQ0tR1cRO5v1JH7RkmI36/srmkxpmnxk8flSEeyA1lvAhuRcIyEDyBDmXM2U95Dv6U8k6Y6OgJnaeD/IvDP2p3KnP7JhV85klmOsh0aRUtz7fmFXLBb/ZX6wEB2HDhsgUYKp/Qd0/1l30KPqPolAEzv1E/F1g9quqCwv3ujGADhBo4n1ZSqgzOrEUf2DNeZ4qYK+EQFoaWUMHsaRqj2GN78bI31l62+6brflT0zZvR0N7DgADELPAaya339OPvLgCkYTJjcjXkzVeVPWEjxoNxDE2Qng5LrYYGZdfvcsaSfbLhdCUv3mz8t3bV5Nt7W76GVtzQV0v6BWDDytOr4LH0jL4Sj9v74KJ2bY0Kc0JDA00EcsVBBXJd9I7Eh2cqXEWS8YE8jPweA194MdHOlfZf7rxZ+9zXAr21qF8AWlrgSuzr5Ug9E2IpQDGKcSA/FtU2URDFRhrgmuNQAe0YA11ss7mKpOyK3ds6yMR+GfvIve4TgPYpWPM1g+f0PUZysxin3xxLUrXDJb6hBPYNlvIcixcXhC43HEqGKZiGQxNM5Kz/vH0FavfL3moIKvYeGosDy/GktPenmbtCAcEL/pCTxfWhsMU/Km0J5LGkhukODdAF9o0H1j3w48XdH/F3nxwQqpfz3feyt4Tj+h6BB+DI7DdeHSAJB8IK8KgvC0LZPZYDX8yODqU11p2PZq7u3tReASjn7YbN47tHzvwGBQg+E5OHWfOVsWCR8k2djdU+iGEu4w0mCGBtFdxZo6wdm5X5PL3WMdMxHKCmsup3nLGxuvrrM6q7buXsFYB2OHxuRD8whqkyjKbBLEvzYiWkEHrAomJwQndCMYg8I3pAvRXLpLtzcNjnGA8iRiEtgh1FOTn10Ccrat6jofcxoKVOj8bIXHSjALgVxIqM3wwveBdUMpCp2BszuA/jIkd3eOPwPv5y73QrLu1/ol38HwgovbnxlO7N6cEBd1192izV0p5+BqfdW5as3+RgWM4zP3pfWdu3qDBnwrwXV8DAnMt8wYAAuTNpvPl0pkz5KwxR9FDwxK2PP55ddeqpWAR3Qg8AekLWcr7RmdAPBTiOw+Yk29wNZkhaOXysnxTdHiENvIJz3MjZ8PgI0t7cPKuRc4vfu23uKYI7oH6J+412sxuP3yBsXCoYNz5pRSASgC4I8WzMBgxRoFqxd2z5bGwTu3DA5rOPLQ3a9uFResTGzFx3o0AESGIx0+3RYH5GlvCcdWQCbyyDL0IQcHxr+9a+ARj0eDhLiWNlfTCUHoNxyPFoAcPlNCGXy8HiaSvyoBEsxoHjJ6DNwcDU+sfunld2+mUfsN1dOCBM0Y/KiN9BwIGz4Dy47CibAKPUIkjQniOZfnNBeqsNapjWZqW2bURUdMxYD/KOop3Y6qA3tRyJ5vYCQN2zNAPAAZBA7gcjBH2f/ZXnkKOVf/I06AHjXA+GKArv3I4NPB+rwJaPUSB7ZyhcdIC6puJjbHcw2/cegardy+pFOWBt9cpKtatmdirWOdXqJAapXr9wQQPKaM0bJePgqoolOBOcQMvOGQ+8rytNqC8NBQ9yb0YpZzQ1LB3TgoCci5/hBsxauZuOG5vCb/xTtWyAJKFBATetDzbQzL+pSdm765w14Wi68cEF7baWfWruvTdn0sUXt0UBiKNTxyYAATq7I6SwvAgpB70bvF1pXkwexFYt2vO9XxAPPmw68ucAvDAcgHtaOwQdKgBnYWun1dbauR8kTmzbYRgh4AN7S5SB3XmsE8vjxISfRLwsvbdqdO9iY6URCOh62+Z9UZE3owCEUnTJ6NYsCaW7DIV+jQlA2N9pWXCxFt1OOUCZ5HYwv9dkMzsQJrNWbqNEgDUzf9sQp0OSowQeOSFEkpRBEDKwDIJzTAa0mf+x11oPhuehiQ4AYXxqNFiBBSJKxlTDoVFCH9stjbIf2IQBgB/WK+rjD5TpwVgkHGFbLlDdtru3sUHdP3WqMmbMwMAZ1s8N9dhPXINYSECxSxC5+jw3bTzfOIiI6T3T5ipjYpXka8PM38am+THLAdFKG+vCqmU3OgJk5J/6Kn0WGgzWMMYCgcUlr0BIABiu24FtmXA4OXGq0rGtUsSwiLtu7eY9gEufNQ873yYiTb4y90DkUm1C7iQAJemkgDi/EZ3puQ4MKxpj7v7KO2maMqDOCWOTktWEzUrNuxEnjjElskurIFw+OIN1FgBqIXPhkMRIOrSanR0KK7OpUQV3bIHtnke4DV2i6RDHtGoRPR6/5QORiG89C7Pcufspo6QCY0a/CtfuUNZeuL7j2AzOjuQTTeOmHeCbHJMkx7f8y81XxrxPYG/xJGVgm2cI9bOaasGxCUBBeTpQOP46QgTDOmYaE8oYULPshWO2uexzjPms7RthGr5XBWYvVJ7iCpV/2ETVDmWyWb9ThT982/EFQ4ogrnf+J7Dfd6LKPvAQDI0tFWrcqYIvPyfA0AAWASzjxhngvkzc/OrZueB8qEf5ROXfbzHsWwOySb3jDw/D+eUuGauO6fUoGHBYtj2B5BMAQq81V8YzcRI0PaIDgfhv0xUGwBZ88RmlZs9XnhlzlHfGXOWpnKI82FyuOvCcIcIhtew82fEWXPsq9gDvgMjsECeSHiiehxq4AYlueOnWQ6+YJJMb7qoLrnlJmTu2Kpvg42Qpnn3GQ63MqKYDu7NVJwDB7icPSi0xqpUeZuHgPnZrWIVe+RvA1qpsiF/fjH2UBm7omzw9IvEwSyZYWRTEdhDLZIE3XoAbjRqlIw5Bm3XwkXhItjqUwJwhfFEIryysqARrtqjA6y8qG+7gbOydkKxFVA8l//RJA7d0xfbq1REVvqZNGbNjwGifRDghgBh65w1lYSbcUTVD6XmFypg0FasSuQAhvHzCK5aJZTK7BROOjeuUiVkpIWm37FWhrRDj9JQ/pCCwdlQ3wbAK12xyJhv0Oc0xH9U5xPVQsT2kOo1WItLC1Np3bKgQESwccKy3PNqx4D7gPCZEnQbOZu1tVlDCw4klFM4CwA645q1TNpTMdOUmejmqXAL4DRFuRty8Da3rMLPFiokN7kq3HPRBKOeB8AAchnHA+aSdwv5t1WG1l2p7vnJKScgXapAH4+oPqEBrZnIejO9wQUbnBHI56vcEtPjDGSnt/kwAlSqE4QYCjasrBPZ4DKQ56Kst/ezhng5fW5Fhk9hC7fFFDjaZIMBqR2QQ6LRf/HDyYQSRvCTno9olXssXJ8duf5HPeKR3LBXwUhvhYK7Ha9q51rh8EYkqBAKhT8evkThkhbzsM57klPkTJwWwHp6r2x2BvC5vf5yZZKJnKDBUCtghEwBUWu5QM8iky1BgOBTA6Cdbt40xuAY8HKpk0o4oBXTd9kAfMaJlpmZhnG+4s+DUrOHYqRXpHDllymN7AcAxhEAN7jJkYkGdnmyZRGtjXjCNy1wy8cBNLntJQBzxmO8QpjMdKeUk1rjxiDNmfpgOszj+i+4HQVSu9TI4PqNjCpW7kT/u7YixgZTA+vA3luqkbMmkM5FGlZB4YEDZ3EUXKbszRppdkQYRLYDHNrzhyHWataKX6qIhelGJWBfbOALB3oMVBte4kzo/PNfycNATj1gAUK1GrL0SpAg6rF4EXACRCZMoMTgl+ByEiBm+loO0sFqxd8Nmj0csIK1eWIR0cEVLZ5NYTiNg9eLyCGBI6V4CbwNsrJsJhTfPI2agnRztAZ06S8GSt15S5qh/AH74XXZeAEmRxn9IA9DNY2T5QlYgmMYtiVSdnA2rGdkrzsHSWpXq+M97Kvj0b5W9azv0fDB3B0fUcGqSduixWAOeq7zlE9TeB3+irD04mRwh79wrZJMRAdH22//GjrUNWP1ocwAKc3lt6izlX3S48sFSpvXPjylz439wxkejylp+lqSzAJ6O//m5gDjrS5cooxCnM9HMvnvgS4CPhUOpeUxD29+eVLmnXSJ1D2OlpeP3sIjB+rC8LDCM4AuVczb8fEP/aLa2qo5HfoYXIJVPU+/e4F5+o/3k6HZ2ruWBRr6ZBpsiAvp4YXvJIgVvUYSBI+XkyvquLK1RcRw7sMNP3iEwhJvxOYkBzqLl5IMTgZtl5cDoYDYIhO2DH/xbgCt5UATCgEHPBRcksCJ5cw1ZJ2eEjpB7TSwsr4XeW6NM1IN2hNw/7JkIq2pwscAHEbMvAJum/FYjOCaMT2lrSC7nhaVNsKISRgkwlgCX1bHvWC+HrWBRqQrDK394C0BPgwVyTzYkbYNYQyrb0Ds8puGrl40x4BBp3SqOoSASOV6STUeylNatlxBFNhbJ2M0dC6LVBCDMpAgYAyAyps9VNq4t2glGOlnGe+ReAKIGcBK3MoyT8RnGnQakCNLaHW0qtGYVAIr88ZunrWdD5Bs4kDoIYFrgyGJyj2cyntuzRwU3rVMeLPP5YSNoTKgS0zELBrSqYrJSSK9z+yYMVc0P/60sgFMAiDqke8AwqN1T5puEEytqI40C0cZqIBa74bFHUwFg2TcyewGslCcrk3tHPnovZsxFBPNF7SNgDwm5pU3wsCwCEKJYhTBxAMezcTCNDa5HYwfZGCXZaMp8d7XSYO5vLVqivPssBCcuVO3vrFG+uQuUZ+a+Kox0YVji0CWczB45EUr3AInhLSlt0XGuK/zNai3p3p7B1d/lZ73HxoZpnKaJfRncNAMC6TTTgkiWycmA6GWeEYRTRALMzl7hGMByEZ4fzpa5j5iqCOxZEcsbmH9ZmDSJSMckRscYleNIlm+Ca1oc98GMiwB3i+m9FWlwV4Y9IIEva4/zKmnGzqisSYP6D6mKxF4MFnrkAXlK27/2N17EWG0tXGdsU9lHfkb2jxAUDghBLhIvNlAOiyx2b+K5xCFpGRcqFJbNOORcfEaVDh/xw4eYkFgNtarj3TfEMMKDCY/nmOXKwJhQh6ht++efVYiTHor1sRCELNiVWFDUSCqRKBvGQrv6bQMBEFF+9h4PzzmuwiQj+NarKvDqs8qTW6C8OJDQg5kzuZZsJu/OfnoAsPfcHRT28QyApNgOPvM7McvnGDbvyOOwFbRdBTYAeBgKKIrtKGj7yCddbvNFxNg55M2rFQBiSP1RutR9wHrGAiL2mgmF40S+3esuGeImwQBxyHEaNywZhcWYxU4RL1gaXPMmPrBM5IqdYjaMY6kWMmEhTdFrYexn8jw5ObcY7FvqLH8SX42RzFFEsKetfN99WyAf8G76PB+rkMMMR7IeySjLwmxSoycEBhmHYdwE5uaIPqfz+JeKgK7Buct4VChbLXtU6wtPq9xjT1JezIpNiD8du9h6cDIRqd3z6pqz82uAOHxZMAYNffwhdskFlQ+blsyP3hV9ow39pdS/t2zT8R5Xq7KytrLqgjq4nvhIlnvSsTFundmBWFmw9+4VJS+3PGpcYYB+T7Amimq/8s3iLLME+jqsZIDjcPwlIRZIUMlw4cR8/03s3diCmXGzysE+Yi9A0WOsHJvOrUv370HFQSLU0caMmVsGZFmOfqi59BZ5N7pnm66/xRVJbuFm1l84oKay3rYplzlDS9sAAGKMR7CovXCCyM1GxThprHWPcxoR9HeipOZSHTu6DfEo2sgluwdOEgBoLuVZjbVyMrqX3I8gJjiSFQg0zqDdfqDKhx/e5xuR9gF9xHZwRcqfhcFtBIDFN969ue6qM+qxOQeLjmkaOMEABwxii6O+bZMqOP0ipZ9+IbhhO/y5bBNffBomFb7JU1XwP++odujeuAPOmcH20rnIjqHjuT9hRaJSeS64GqDO7yG4nViZv4OmAL2MYUXJLinHzCoCQF7o+QVrcKjcMofCvXQII6VyoJjjeinWcK2mOtX6j6dEjaGysEwGfZqcStnWovZiXCcK5g3vY1aL8SE4v40JQBDbI2Hb4ohl6uiYHwLdZFiYAbe//A9sYp8khgM4hNlJS8zDnYbG9WQskdkQmchQ0jl0BBeF0QJ90nBpUDbHk7tR2vQIKA/Le3wp7L27UZ/1sqxnh8mhI29DjzRpeIMcHmotu7B8LWsvIpgXmidrDTwkLBN+79Cet9MnuOMs4WqmCm/+GG3CSkR+ITofejxMTCwskwlAwRFtOIiUwKU0EIVWJjbz4LiQimIiiHQgSOE1gft4uStOxxiTimMlwODJ53AySUBiAsFPl8BxKYBJh0MWjvZSocg6bm8AZFkELwGIWXh4B+oI4wOxjBlD+OOQAsueZlupeostlmbzou4n3z5Re2/tH6N2Z7yZxkHWtwVI6D2uu0ZWJrAAHmkVm86exTf/u6Dj+DDa7shziYVrinmKEDpuYXIAVrMjs2w+osECx4/RwJuM43Axm2DHLSfwgpm4wXkAjwFOHJYjLxXy43eXuG6adPtG27DKpC05Zn3pBdfMZe2jHFAvq3gRYgqeA0GlWLqkWxulvhB97mCeHaow2eBvGdCjyQSJtDHSUPa5PI80Vp7HdDonJMyH4pN5EMSRPBxs4VmfNIukZUROYqIRuydwfiM24rAslsP4YySwWWi7BkW/nluARW0nRF/X0rO+Bi2ouVoa7z5N2290JgHCUyxh1SIdz/287rVwlG6Nk7iIT5B0f87fFJs98sB9uYd0TM8yuwTWAx9yPg+V2LgeKDAP1kHqGnlZBpNuoHxT4jnaD5d0MFHrCUCpnz/72d4HyClR+0wl0poCYIGYZGlwxmmVT+wdgEZp5d/kTRZ2mdatzVQ+FSkABthaUKrM7PzeAVh0wLEv4yhSrHqnEALpYpfWxxSBIhopxgZRP0ZzP9HO6JbOfd7fdzRtzAXr5KaJud3lcqDn0cgxdWIaaSsu+C3Bfe5+R25Hv3jf/eBShgux6d2IfaV3nyf5G2NoTsUafHmqMUttcUtzW+n+Vg3fvvA+eG66sOd4Jhol+RdCKwzCSUyOGeipHmMoGx6qeEwqDTyxq96pR48WRKrnep3HTy2M+G4f8ZuDey8+XJNk4Aw5MvajtbPoB5mAoKdjS04I3HL4zaMbCELOimlsyjxjAi2sZcbL+jMeVTa9rbhIGjyXshCXm6Vo3o9xJfevWNAHSv7RPTvML6YgXjItJ0YcM/LsOgzyIeikzo7nLZTN+kvCXtJ3yy5ZPztQhSaclvmTULna95BDn/nckYectGDBgmB0Fhwt2Ot/EpW9MPp7xC+c3tRLyh1j0LIKpbNjMMi36cUKS2EW9HLWzq2ybipGmuxkt2d4SS+nMCZ1XK7hBo1Mqauj/g5KZg3LcQb3XvDMELaPHRThsPQPbSMOfQVqcJsW3vKRUjzXjR0NZbLGPScTpji/odczN29wdHXCnZEX88ELY8CCRkz0YefHslUYZUucGAQxTwTqKnlqEveA0DOrABCTEQuKc64L80Abqxl5UC+I7J18kJbLWgRrPvazwNGm2C3mYi8KW4U22S1N4n7OotPzltGyOXbryQmVT7UHNbW1rmHZK++tfxiahdN7ALCkMvhc4y6tCbRx9goKiUb4D+jnX3KcMqbNUb7Z8wRQqL10uoXFeXqrb3vsPvhT3qks+PhzwOPWESdzY+tk9gmnKy8cUJI7taz6q4KOU9nr3gUHbVe+eccp/7IvKg/N5ckNI0CQyLwmUGRdGSsnD/1UmZuwbAmFMpfk9DkLVd7xJ0tUE+Bqve8mmE2BC7oqE+ocsW6cu+I82QfS8vQTSq1/1/E1GMOVpbYEOcozFixWninYO3LYMbI3xZE+rAN0gXjZ9sI+Ua39l7LegZJCj3BtJwMYXBQqzyePUtmLj4g4VOdzl1btWHZ8VwX+/YYy4elVuHCPmbpLtyR9g5zk0B5w5qzC8nBZYf61b6/fcPNzr64+JTfbv6cHALWL7wvVf+/yR1TNlq+yHdKYJNWte7YUXXrlZOU/fgWsVuA+F53ZtvplgIwm6fVKK4U7XbjV9QGY2f/nfGVu26Tan/qVs5dWxAxqC1FELuKprBIgsg3Z2E4ZaMbmH1oVQ8QGafL0v0gHQHDDj4H9HzlLjpUNRe1vvgIPqViFoM9oiE0bR3LRgSVNorwz5yk/rKTpZJwc0gAn1eHMnICh+ZYTSDTwIIh32RzFmwQ0OyIa8AN5c7+I5+AjYHz6OVFis36h9e+Bc8GAAv88U2Zi33GJyv/E4SpUWqmC02ap4At/EceW3BDvOfKzij6rsw/Cc0iEwNuvq9CGdWI4y+PEsnDfg1mnp3KqagNtLXh8tUAzOWrW5djROiXxAn3jm1ilyg445KE7jznxxw/+7s//eWnNW7+969HfX0CG3iNY+aUPOErXHo+SewNGmDShMiDi6CGAeyQsiEBr+2Y5IMbavkmZNVuwjXE7jlGAKMTZGrLph2KPnAsN1ThmhBEpxaCJJS0TeRAwvM81SHIqu70Vhp44DgHg4hKcbI8kt4F1DJfW5B5AaGENV5bX2Fk8tgHiTUc+tLiRdV+8ICI+OW4TJbW87qCR+43LvjoaoOXYluCXlRpwWBMAsaWtKFtO09yAl2yj7ITTcvGiyLACe1Soe4Ru0TNhojJKy6U47iU2uX7MeiMtvzl8sHdjkz3fCWwPFT+IfdUnWT3L8oRORSFVNOn7LOb8FSf8ae6MqSfrhtHRgwMyQsVV1W/Vn79sjfJqB3FzzkgFDeMmfTrELvZEtP3reRBwgwo/+5SzJMVB9gYAZMtGFYJYycEGdC0nW3mwgy0EQAogwKl0bDrXp8xQBsZqreAIPM8t7wiIc+6xhZizwP0ULZ5x5ofNMRTAY2M3m4z7MN4K4whVC+UqgNQRz4gD0GqlSM+xI8aBrW+/przgsD7kp8+ai8G/R5lb1jsTARKLYCTh++xsPIMrEI5F/TgnJEQraHCujicecMatVFwzm3Vvy5jTyslRWRD9WQccogKvPIv3TMwmlA9HxpLbB7dtUB1/e0o2ujvjXiRGEe3c7rnfwRDx6EaYpznjy167XMpLyh8wBzIEe1LVL0oWLdrslvHNC77816tuvefzfdYGg9pfWIG2g/qevblZJeCb3IsiDWLGKJkg3uPpRNzatF725zocBeXgzadfZQuGBm2/uQ+3IaggWuXoJxCc4pVHLxg4jiuInWRh7MOV+BBzWlGZMiC+bYBXlt1kC+Ug6o56cQbumTkH9atAWhg6wMm5TQsYTIy8M+crEy9HePUqvCgRgULgSZvICbsFDhUAfL0UnB4TLQMclaZh5O4KkyKZjbtJ2F7kY2LsZ8Kw1sOXaGKVAB1TJeHGHCoE38KLBkMLEa1MizGwOy42AUIT4ll24UWHCW4BSf4GQyD3s6bPCWhFpTd2L+2Oq1f+o08ABisn/NqzdcsPoUIoFlWC8PHuWSTwNwjNQwHlMEEsSXN/hJwYJOun6DSWT5DBaIAHzlh0ncFAVYhwHHQ+VCv0s8JTzLm3gidakpMRoDrGROJhIFY8Ojn0/5dAQrl6EWblmI2LCgj52gAOy9BxcA0trKlCEcuZ/nPD0wgoIX5FJAJknKXSo4Is2bGNbiCgEV180ZAjk0bghuLfhu3GbJ8vk8n6kAYciiDQGFfyhvdHAR6tdAB6KZlx+BKMRJByUG5Jyf8rX3Ls9t6K7BOAlVff1lp/9dk/V617r496juoth4TcI5XxRsMUXudbDx2fBbMkfgT8QrmuBTm2dzH3sGFIK4fhaAXGRTAcbX7+D8qGrR7BGQQHMKDq8FRNVwGOAzHeQoExifu5ZKejTr45C0S3F9gIrrxrK6y7MBuHqCyYcYYyqT6pmoXxG8oDx3Rmscy/lzIIaASOdem2QwKGBKCzcx37V8CI+NRjciIE9RBVUvTaIDv0mBd1os31ABrFPsQd0mQf9wVlTJ+tjIJ8YcRSp5ClOv71rIhwvtwjAkLW3+drU/MOvDm2WbHXfQKQkazcvLv05sZv4JIr6ckLpBrGWTT85IcnkHNXGD89gMZakPBi/IlvvtHgkhomJd55i2QPCM2iqFOzMfslBiwogj1QHnvyCzDGnCWDdJsesESp1lezkBDl6FOwNxd7QXiikgm9nImxo7ZoKQgLwMPdBkdjnOD4DjxYBalvdMUckveGPykN+dKFh+j4KOIxDhUdXm9VAW10Lw5YBOj4gnLDEvWgmtgegm40gsgFx1M7hdvZGLN3vPZPqJ3eBGmQtmqmMuBdIWvmPjIZ67tSvRU+xHvsH3BoffIMTCgq7ylb8ElUrveA3us7VFTfs9P2+x8m+05uxZE/xU0QYwZ+CCioR6j0lXIpbtgochcCDuILFtwQNeAg1P5jx7mGMR1nhOKbj3HZqTwOC2odsavD+JCqCQ1jTBmMM05/gY8RRzgVleJIyzGeAA4zVw33WIYMAVAnjg9FhIp0I734QZB6x37LTYcLgxNrEFM0UWJ7JTA+RRc/LJ90gaKZQxOpMbk3V2e4WUnELl4Aily8dEiA/zSu3SYz4jDG0NRVWtz7ElnpkUxYRtID6l5cvtdTPOGW/orqlwMyoXfOgTeG33/zbDQM07YIUfvLcRjPTMxASWj9sKOVvs8BziB722aInjD6E2VTdzZlOt7oucp32KdlbBeEIyBz9UsAHpwKTZktAKV48gJotmyjRFIZJ6JjeB/6vjA616rZPIiaQheHc+WMabNRB4g4pDO4yoJZunQ2wGEiTxq/GpXTHJFK8UYXDC6p+NJYAICJcVgQIMGp7QSWqE0w6QiDo/rnH6hMDBvMta84+kextkZbsZ2A4PQdcbwyqFQH4CxMKqgeIuBMeNCiNy8/lNAdmAnL0l0HRHK781xxLwteymzQSwAq+BwB8IEeGhiDtviwOwuO+AzGB32HAQFYdPl3NtZfcdr9GGusdF7BvjMb7hML+3HpByUEXZgXYzkPOiWI8RHvWxgjaTlZcJ22jzjs0cFxZCUEqyE6dr8ZjF9apkLUG8KPSvgDWHzLBAa1ArcwcPavjVUVLxS7FlYPOOHpFO8uWiItkD7CPYKtEHljvGayblCLhNa9g7cSejgmAeezoAZi+X4oqXW4UZNlNwKeLwzSi7NKgFNo58HEg8uGACDVQAQq9wH7Zi2AF62Zyn/MSaJct7D0R/FsYMyqQ8z7oGymv5rgRx9gKwHOE8aSHDs4DE7HJUsvhgfW4qXKhNLZBO3g9RE6Rky6cDIoPX2J3jDSNKfi0R+Jv0DbBOwlE3argkm3DVTAgABkBnZu4Q+0lsbzMMvD/B4FRF/vgbKP7zm9g9J9GVcEsveFjgsi1MY0nntzVQRoXgDQjwF2iJ5EOTPcuRkTgNlKg1jkRKMNAAwjvYVxUPStx2K+BwC2MYPMhf4uhN1xCkplHkjoBAcUIi7dt4wA4riLYKXyGbPu0PtrcWzrs+hciH0CCVwoDD2jB6qfbCyn6eA2OoBlUUxShIJD0r+fXFNcQ4wzyIwVqiTEkJUPP14O0VMedYLqwNhN7XFA5l34CYC6THmgL+wA+DrwAshh1nSehBAG1/PA0tqPcZ6FVQ8d6icbKiKqYTh8ydr/k1DYYxwNzimm/kzEF0f+sB+TENhuvHjahCk3Fe2/Pzqp/zAoAJb/8L4d9Tdcfqfa/NG14m20/zyH/hQDaK5KBP/4MMYwIB46zzvvAChrcbj0flQWQwShwzvefVMFXnwa7jPgVg7g0gBKhRlwYPsmZW3ALBWuzFQOQCbExhc7AQvzdDgZAEewAAR90nSIMHBJelJAvoF6rHpg1cRu4xIcx0wYwE+sghYDi/oAewBpxXsVXfISnBIwJtyGMgG0AMrUAAA6v7SwnBdE3XggNjmzUY7xIUUx+pxjOrYDglI4uAlnSHuhguE6s3fhQcoHRbzmnY+qw4sqjC94kGHzqmeg++SK0EYHvJikcSkwtOpvKgwOHdq6SfmQlhLAd+znRR3EtMH33kJ7YNCAcn2fOBQvSwveCahFWP1k4I95Mu+s7C175h92p5BogD8uJQeIBoOSO6sL7A/XYgCiVUrkQaccMOvOCBGisH91DvQx/tEnTpUN5Vy24nGm1JdZ2GxuUR2C3/QkQAWzuDXDpCTMtVRwIRGvMXXkLFmDSOeMUDgtAEIRLlyqCEphiFCK6jDXUrm5Hb2mQbR6ps6RiQ7XUC2AmFsyo4H1pfoH5XpnzRdlsCi+wbE9UNu4ahbZIIVGyb4SNg6gDhNMaItdB6CWlMpMmOvgOgAl4yfq7QAYznjpypcHJ9q0aGGb5AVA4UQSXyZYDHHNl5Mycj5ZPgRdwhDHoqRHErqakyVGnktMqyKiMpGB+fGDNqiyCV8uu7z64cFkH9NFA0dvvPa8s+Aw59coKUKEgdMMOYZwDJQD3ZfMEDlmIzAw6Bf7OnAamTlTFNJejvEZOCt2x37OHecvogmBSHwudfHjtp5iQ2aKmHHKrDoSlx0s9n5IzPvseOn82IxxzdmoqIVwDQ4na7ui/I3UqVt0+SnjSMTlrJ51Yx7YOir2gKgbOZzChEL0ex7EkbLx3T2w0zlBYh6cCWM2Lb5xcM+mRoFt5IfbS6HPpHhMSmA9QEd98dI3iy+8ejFeOtZowMCqxRXqLj3pJc20YPuTpIa4tZHqR9ognc6q8jc+/JKaR+5JNPnjdFQUWW5mkaRuernNTo2kiaZHflGA4abIKhdEfMaE8kdy6PzDuJG85CbjxP7ujNl5xTj4SB0i8ZmH29Zo8sgFo/RZtpsr84vkJXRyr/mc+bjP3fgJ+nbr7fXa+pkXHVly6HGrBptz3CgycnMvs9o7sDhpQy0TadRgS4snHmnnElz6AH/ce/LtZkaixsR1b3f/jsaJTRy5jj6LTYSbcr8XrhMbTa4ZVyLHPOn+O+ZRl0s3Xi95yCP3eZdEMT+YLuangIG/3fvuQ/c7Jm7CLtE3nGBVTLw3HvCx+MFQt0s1S2579G0tv/hGERkCjC6Pk/ODtEsm/ZJT6+HlOtT2DjXdsGoLIBSV1OjLTrwu3mziBiALKJlxyA8xzlo77kARL3XHQ3xgz8AEzNhn/8tKFh/nWuUOuuVDAqB28cUhvbziHIAQDlFGig0Ouk2ZiEmnAPqc3c4PJ1FTZjxRfObKp4ZS7JAAyIJKvn/fO1ASf0tmYEMpOZMmvSkABbjMAaDz0xYsuXiojRkyAFlg2R2P3q5XzfijTPEznHCofZCG6aAmx9q7XjE57Ft2yhmDWfHoq5HDAiB1Pcak0nOhf9osBWSkcV90HkP3I7IXy5qqoOi7BctOfmU4jUvInKn+O5cdouprXsTMGK/FsDA9nLZk0o4EBbhMCeWJ9qllfy8587Jlg1U491W1hKCl7Pt3v6Zyci6iTZ4MTPsqLXM/vSkA5qflYSdi1bT1xtQDThsu+EiMhACQGZXd/shDdl7hzTIrzowHSZKxEyJSl5u+tPKJTd45+59YtHTpgJYugyFAQkSwWxAW27WGS5Y/iVWBL/RcGXBjZb7TjgK0b0SAyVvIOPzTnylatuK5RLUhYRxQKohJSXDRorPsnPxVjn7QqXiiKpvJZ6QpgP6jNKP9IyyG1AGHrEwk+NiahAKQGU66uLrNqMg5UXk9cMZCBuuC0P1mrExICwqwy2CVQ1M2vWzSNaVfPOcXia53QkVwbOVaHn+wPPjCH1/CMQMw1gPOk1ZSbKmZ64RRgOZgNLDAhnjjk0uri0+7+IaE5R2TUcI5oJt3/qnn16nyKZ+GlcR6516GA7q0Se1v9BPFLu0GaVtYNfPWZIGPdEg6X6qtXllp1O/8BzZVL3DEMYskGJNeNNuXCfFSgODjBx4f7LIJPy7/2g3cF560MCIoaP6fe8uCL//1GSzZLRJnRyNSatJoNnYzplU2FxKKsbnq+C9cX3LUCTclu7FJE8GxFS848+J6vWruMaqw9IWMeiaWMilyTY5H8NHLQk6+qU3f56KRAB9bPyIAZEEl192yp3Tx9ON1j449JZmQUhTghAN7X7SS0g5j5uxTSy+6+v6Rqt+oCMOG6ku/qxobbsDhiM5Gmh7m7CPV/PFeDjkfNsnTBcqMudu0/Q9dUXbUZ7GxeOTCiHHA2CaVVv/8e9i3ezqsaByXUKBDJowUBUBs0psfvvjYbagKi162pk1ZPNLgY4tHhQOyYIb6W66ZpzavfxKTE/i1gCHDqNbGqdPY/0sAOoTW/NhXdvTye4un7Hu5tngxzVxGPIx6l+/81a9yvXs23m+//cYZcjgL30oqrjMh8RTg/mfgT6N3h9IJu62Dl64sP/akRxNf0OBzHHUAulWtv/qss3Eu751wN1UoTlOkZilTPbea6fdNUcvALbR8sbF5HW5JXlCTq84uOfuKLc7D0fubUj3ccPcPquyaTf+t6nYd6yzfoXopVcPR66ghlyyWLHAzAu8KcBgUVFUzvlt87tdvhS0f2OHoh5TrXpp0Nd35f1fCQfkPcUIRnJ3grZVaplxVR7/3+quB6PYAPDgy4nFn9r77v6AqJl9aduLpH/SXbKSfpWyv1t145UR9x9bb4YT7DBm4kKAZdjgAPiLy1u1VnM2m8vLq4LHgv8quufVXAyQelcduVUel8MEUWn//Tceomm0/U7U18+RcOLgXy+w76YVyxJ67ogGvYiq3IKwOXnqfZ+b0bxftnxjr5V5KHfatlAcgW2g//rixZ++W88z1H1bbrXsmK56JoUG0yIx52DRI8wyAvAjj4zkj8IltW9Nm/8YuKf1OxWdO/SjVG5cWAHSJuPXHV2Xn1jVfbu1uuBbgKxGRzA3SIprdXmDstGqW27xBfLONbJv7zST4DQMCcc5eXPq0fsDB1xd/4by3+CQdQlr2VO3zz+cZ6167CK5sr1Jb1k/pPCmJPvxI9rRs1iDwAuBRzIo/QEww6Jm/oCisTZv1hD77wNuLDl26ZhCZpFSUtO4p+957vQ2N676kmhq+oULBhc7RBdQusKPwle5gZBtc+cq2cMhBv4x0bunPbjYmTv2FXVT801TQ57GmQwlpDcDYBjc8ePsS+8N/X6S1t52Kpb1sOQ+OCEzncSIBKLN/XHCpEkeR2SUTVulV039plc19vHz58hh/wbHUSJ/rMQNAl+SNq/9eqPYEztTWrT0Np5kvVa3Nupw0zpZSp4hTKiOs0U2SGt8EmphFYUmW1+ByOOAPahQcUjNnv832pKm/NsumPlSxYEHKTyziIeiYA2Bs42vvrq7UW1q/qPbuPgUiGqc6mx45NIZrovLhBAadLasF3UmB38P2AEtQMV989wi8h2e0QKZYJafmNcWrYdgqK+9NraLiD3p2/h+Kz7sqbSYVPZo5wA1SZ1yEhr88XGA1NB9lbF1/HA6sPk4FAvsonLrJAb0488au/y5BRDfJMwwSCVdjrgRbNxDC+TrFqpwOipUKHD+2QS8sXmVNnfOSlV/0l/Ljl9cw5VgPw6BuepOm9vXXK7Na6xbbgfaD7eaGg+3a2sWqva3cbKqD13140uehifDIj22lwA7AgyNkhWtSTPYXyMXEEz0BDfLKoTa45n3q6XDykae4vEaVlL6HY7beDRdPeNUqqlhVPn/+jv6yHavPxi0Ae+vQ5od+Vhqq3zEHx2TN0czQHC3QPt0KhXlKdQWOcSjHdzn2Tvh7cDPJTEiJIyL1dhzp0IzxZg2uazR/7g4cZFNje42thj/nA72k7H2I1N29lT8e72UAGGevc1Vm25Qpvlxfqy8YyPEbftPwBT2BxkCgbcbRR4N1ZkI8FPj/hHs9z8JporMAAAAASUVORK5CYII=;" vertex="1" parent="284">
                    <mxGeometry x="35.35714285714289" y="19.285714285714278" width="19.285714285714285" height="19.285714285714285" as="geometry"/>
                </mxCell>
                <mxCell id="285" value="" style="group" vertex="1" connectable="0" parent="1">
                    <mxGeometry x="499.5" y="175" width="91" height="46" as="geometry"/>
                </mxCell>
                <mxCell id="248" value="" style="rounded=1;whiteSpace=wrap;html=1;strokeColor=none;" vertex="1" parent="285">
                    <mxGeometry y="6" width="90" height="40" as="geometry"/>
                </mxCell>
                <mxCell id="240" value="&lt;b&gt;&lt;font style=&quot;font-size: 10px;&quot;&gt;Notebook&lt;/font&gt;&lt;/b&gt;" style="text;html=1;align=center;verticalAlign=middle;whiteSpace=wrap;rounded=0;fillColor=#FFE6CC;" vertex="1" parent="285">
                    <mxGeometry x="16" y="22.375" width="60" height="20.3125" as="geometry"/>
                </mxCell>
                <mxCell id="245" value="&lt;u style=&quot;&quot;&gt;&lt;i style=&quot;&quot;&gt;&lt;font style=&quot;font-size: 10px;&quot;&gt;Developments&lt;/font&gt;&lt;/i&gt;&lt;/u&gt;" style="text;html=1;align=center;verticalAlign=middle;whiteSpace=wrap;rounded=0;fillColor=none;fontColor=#333333;strokeColor=none;" vertex="1" parent="285">
                    <mxGeometry x="1" width="90" height="24.375" as="geometry"/>
                </mxCell>
                <mxCell id="286" value="" style="group" vertex="1" connectable="0" parent="1">
                    <mxGeometry x="500" y="226" width="90" height="44.19" as="geometry"/>
                </mxCell>
                <mxCell id="281" value="" style="rounded=1;whiteSpace=wrap;html=1;strokeColor=none;" vertex="1" parent="286">
                    <mxGeometry y="4.189999999999998" width="90" height="40" as="geometry"/>
                </mxCell>
                <mxCell id="282" value="&lt;b&gt;&lt;font style=&quot;font-size: 10px;&quot;&gt;Dashboards&lt;/font&gt;&lt;/b&gt;" style="text;html=1;align=center;verticalAlign=middle;whiteSpace=wrap;rounded=0;fillColor=#FFE6CC;" vertex="1" parent="286">
                    <mxGeometry x="15" y="20.875" width="60" height="20.3125" as="geometry"/>
                </mxCell>
                <mxCell id="283" value="&lt;u style=&quot;&quot;&gt;&lt;i style=&quot;&quot;&gt;&lt;font style=&quot;font-size: 10px;&quot;&gt;BI&lt;/font&gt;&lt;/i&gt;&lt;/u&gt;" style="text;html=1;align=center;verticalAlign=middle;whiteSpace=wrap;rounded=0;fillColor=none;fontColor=#333333;strokeColor=none;" vertex="1" parent="286">
                    <mxGeometry width="90" height="24.375" as="geometry"/>
                </mxCell>
            </root>
        </mxGraphModel>
    </diagram>
</mxfile>
